<svg xmlns="http://www.w3.org/2000/svg" xmlns:xlink="http://www.w3.org/1999/xlink" width="3521pt" height="2648pt" viewBox="0 0 3520.89 2648.4"><g id="graph0" class="graph" transform="scale(1 1) rotate(0) translate(4 2644.4)"><title>UmlClassDiagram</title><polygon fill="#fff" stroke="transparent" points="-4 4 -4 -2644.4 3516.892 -2644.4 3516.892 4 -4 4"/><g id="node1" class="node"><title>7</title><polygon fill="#f2f2f2" stroke="#000" points="469.698 -1603.5 469.698 -1728.3 1416.075 -1728.3 1416.075 -1603.5 469.698 -1603.5"/><text x="942.887" y="-1711.7" fill="#000" font-family="Times,serif" font-size="14" text-anchor="middle">&lt;&lt;Interface&gt;&gt;</text><text x="942.887" y="-1694.9" fill="#000" font-family="Times,serif" font-size="14" text-anchor="middle">ChainlinkRequestInterface</text><polyline fill="none" stroke="#000" points="469.698 -1686.7 1416.075 -1686.7"/><polyline fill="none" stroke="#000" points="469.698 -1661.9 1416.075 -1661.9"/><text x="477.698" y="-1645.3" fill="#000" font-family="Times,serif" font-size="14" text-anchor="start">External:</text><text x="477.698" y="-1628.5" fill="#000" font-family="Times,serif" font-size="14" text-anchor="start">oracleRequest(sender: address, payment: uint256, id: bytes32, callbackAddress: address, callbackFunctionId: bytes4, nonce: uint256, version: uint256, data: bytes)</text><text x="477.698" y="-1611.7" fill="#000" font-family="Times,serif" font-size="14" text-anchor="start">cancelOracleRequest(requestId: bytes32, payment: uint256, callbackFunctionId: bytes4, expiration: uint256)</text></g><g id="node2" class="node"><title>1</title><polygon fill="#f2f2f2" stroke="#000" points="2413.412 -2263.1 2413.412 -2639.9 2770.361 -2639.9 2770.361 -2263.1 2413.412 -2263.1"/><text x="2591.887" y="-2623.3" fill="#000" font-family="Times,serif" font-size="14" text-anchor="middle">&lt;&lt;Library&gt;&gt;</text><text x="2591.887" y="-2606.5" fill="#000" font-family="Times,serif" font-size="14" text-anchor="middle">Buffer</text><polyline fill="none" stroke="#000" points="2413.412 -2598.3 2770.361 -2598.3"/><polyline fill="none" stroke="#000" points="2413.412 -2573.5 2770.361 -2573.5"/><text x="2421.412" y="-2556.9" fill="#000" font-family="Times,serif" font-size="14" text-anchor="start">Private:</text><text x="2421.412" y="-2540.1" fill="#000" font-family="Times,serif" font-size="14" text-anchor="start">resize(buf: buffer, capacity: uint)</text><text x="2421.412" y="-2523.3" fill="#000" font-family="Times,serif" font-size="14" text-anchor="start">max(a: uint, b: uint): uint</text><text x="2421.412" y="-2506.5" fill="#000" font-family="Times,serif" font-size="14" text-anchor="start">write(buf: buffer, off: uint, data: bytes32, len: uint): buffer</text><text x="2421.412" y="-2489.7" fill="#000" font-family="Times,serif" font-size="14" text-anchor="start">writeInt(buf: buffer, off: uint, data: uint, len: uint): buffer</text><text x="2421.412" y="-2472.9" fill="#000" font-family="Times,serif" font-size="14" text-anchor="start">Internal:</text><text x="2421.412" y="-2456.1" fill="#000" font-family="Times,serif" font-size="14" text-anchor="start">writeUint8(buf: buffer, off: uint, data: uint8): buffer</text><text x="2421.412" y="-2439.3" fill="#000" font-family="Times,serif" font-size="14" text-anchor="start">init(buf: buffer, capacity: uint): buffer</text><text x="2421.412" y="-2422.5" fill="#000" font-family="Times,serif" font-size="14" text-anchor="start">truncate(buf: buffer): buffer</text><text x="2421.412" y="-2405.7" fill="#000" font-family="Times,serif" font-size="14" text-anchor="start">write(buf: buffer, off: uint, data: bytes, len: uint): buffer</text><text x="2421.412" y="-2388.9" fill="#000" font-family="Times,serif" font-size="14" text-anchor="start">append(buf: buffer, data: bytes, len: uint): buffer</text><text x="2421.412" y="-2372.1" fill="#000" font-family="Times,serif" font-size="14" text-anchor="start">append(buf: buffer, data: bytes): buffer</text><text x="2421.412" y="-2355.3" fill="#000" font-family="Times,serif" font-size="14" text-anchor="start">fromBytes(b: bytes): buffer</text><text x="2421.412" y="-2338.5" fill="#000" font-family="Times,serif" font-size="14" text-anchor="start">appendUint8(buf: buffer, data: uint8): buffer</text><text x="2421.412" y="-2321.7" fill="#000" font-family="Times,serif" font-size="14" text-anchor="start">writeBytes20(buf: buffer, off: uint, data: bytes20): buffer</text><text x="2421.412" y="-2304.9" fill="#000" font-family="Times,serif" font-size="14" text-anchor="start">appendBytes20(buf: buffer, data: bytes20): buffer</text><text x="2421.412" y="-2288.1" fill="#000" font-family="Times,serif" font-size="14" text-anchor="start">appendBytes32(buf: buffer, data: bytes32): buffer</text><text x="2421.412" y="-2271.3" fill="#000" font-family="Times,serif" font-size="14" text-anchor="start">appendInt(buf: buffer, data: uint, len: uint): buffer</text></g><g id="node3" class="node"><title>1struct0</title><polygon fill="#f2f2f2" stroke="#000" points="2545.981 -1996.1 2545.981 -2079.3 2637.793 -2079.3 2637.793 -1996.1 2545.981 -1996.1"/><text x="2591.887" y="-2062.7" fill="#000" font-family="Times,serif" font-size="14" text-anchor="middle">&lt;&lt;struct&gt;&gt;</text><text x="2591.887" y="-2045.9" fill="#000" font-family="Times,serif" font-size="14" text-anchor="middle">buffer</text><polyline fill="none" stroke="#000" points="2545.981 -2037.7 2637.793 -2037.7"/><text x="2553.981" y="-2021.1" fill="#000" font-family="Times,serif" font-size="14" text-anchor="start">buf: bytes</text><text x="2553.981" y="-2004.3" fill="#000" font-family="Times,serif" font-size="14" text-anchor="start">capacity: uint</text></g><g id="edge1" class="edge"><title>1struct0-&gt;1</title><path fill="none" stroke="#000" d="M2591.8869,-2079.6546C2591.8869,-2120.6616 2591.8869,-2186.1995 2591.8869,-2250.9131"/><polygon fill="#000" stroke="#000" points="2591.887 -2250.981 2595.887 -2256.981 2591.887 -2262.981 2587.887 -2256.981 2591.887 -2250.981"/></g><g id="node4" class="node"><title>3</title><polygon fill="#f2f2f2" stroke="#000" points="2624.74 -1553.1 2624.74 -1778.7 3283.034 -1778.7 3283.034 -1553.1 2624.74 -1553.1"/><text x="2953.887" y="-1762.1" fill="#000" font-family="Times,serif" font-size="14" text-anchor="middle">&lt;&lt;Library&gt;&gt;</text><text x="2953.887" y="-1745.3" fill="#000" font-family="Times,serif" font-size="14" text-anchor="middle">Chainlink</text><polyline fill="none" stroke="#000" points="2624.74 -1737.1 3283.034 -1737.1"/><text x="2632.74" y="-1720.5" fill="#000" font-family="Times,serif" font-size="14" text-anchor="start">Internal:</text><text x="2632.74" y="-1703.7" fill="#000" font-family="Times,serif" font-size="14" text-anchor="start">defaultBufferSize: uint256</text><polyline fill="none" stroke="#000" points="2624.74 -1695.5 3283.034 -1695.5"/><text x="2632.74" y="-1678.9" fill="#000" font-family="Times,serif" font-size="14" text-anchor="start">Internal:</text><text x="2632.74" y="-1662.1" fill="#000" font-family="Times,serif" font-size="14" text-anchor="start">initialize(self: Request, _id: bytes32, _callbackAddress: address, _callbackFunction: bytes4): Chainlink.Request</text><text x="2632.74" y="-1645.3" fill="#000" font-family="Times,serif" font-size="14" text-anchor="start">setBuffer(self: Request, _data: bytes)</text><text x="2632.74" y="-1628.5" fill="#000" font-family="Times,serif" font-size="14" text-anchor="start">add(self: Request, _key: string, _value: string)</text><text x="2632.74" y="-1611.7" fill="#000" font-family="Times,serif" font-size="14" text-anchor="start">addBytes(self: Request, _key: string, _value: bytes)</text><text x="2632.74" y="-1594.9" fill="#000" font-family="Times,serif" font-size="14" text-anchor="start">addInt(self: Request, _key: string, _value: int256)</text><text x="2632.74" y="-1578.1" fill="#000" font-family="Times,serif" font-size="14" text-anchor="start">addUint(self: Request, _key: string, _value: uint256)</text><text x="2632.74" y="-1561.3" fill="#000" font-family="Times,serif" font-size="14" text-anchor="start">addStringArray(self: Request, _key: string, _values: string[])</text></g><g id="edge5" class="edge"><title>3-&gt;1</title><path fill="none" stroke="#000" stroke-dasharray="5 2" d="M3018.6619,-1779.0819C3028.6892,-1801.5264 3037.4958,-1825.4 3042.8869,-1848.8 3080.5841,-2012.4248 3131.239,-2083.8133 3042.8869,-2226.6 2985.3562,-2319.5759 2876.5271,-2375.3706 2780.1896,-2408.129"/><polygon fill="#000" stroke="#000" points="2778.988 -2404.84 2770.61 -2411.325 2781.203 -2411.481 2778.988 -2404.84"/></g><g id="edge6" class="edge"><title>3-&gt;3</title><path fill="none" stroke="#000" stroke-dasharray="5 2" d="M3283.0909,-1627.1179C3294.5048,-1637.4355 3301.0343,-1650.3629 3301.0343,-1665.9 3301.0343,-1677.917 3297.1283,-1688.3728 3290.0775,-1697.2675"/><polygon fill="#000" stroke="#000" points="3287.401 -1695.004 3283.091 -1704.682 3292.496 -1699.804 3287.401 -1695.004"/></g><g id="node9" class="node"><title>2</title><polygon fill="#f2f2f2" stroke="#000" points="2655.926 -1849.3 2655.926 -2226.1 3033.847 -2226.1 3033.847 -1849.3 2655.926 -1849.3"/><text x="2844.887" y="-2209.5" fill="#000" font-family="Times,serif" font-size="14" text-anchor="middle">&lt;&lt;Library&gt;&gt;</text><text x="2844.887" y="-2192.7" fill="#000" font-family="Times,serif" font-size="14" text-anchor="middle">CBOR</text><polyline fill="none" stroke="#000" points="2655.926 -2184.5 3033.847 -2184.5"/><text x="2663.926" y="-2167.9" fill="#000" font-family="Times,serif" font-size="14" text-anchor="start">Private:</text><text x="2663.926" y="-2151.1" fill="#000" font-family="Times,serif" font-size="14" text-anchor="start">MAJOR_TYPE_INT: uint8</text><text x="2663.926" y="-2134.3" fill="#000" font-family="Times,serif" font-size="14" text-anchor="start">MAJOR_TYPE_NEGATIVE_INT: uint8</text><text x="2663.926" y="-2117.5" fill="#000" font-family="Times,serif" font-size="14" text-anchor="start">MAJOR_TYPE_BYTES: uint8</text><text x="2663.926" y="-2100.7" fill="#000" font-family="Times,serif" font-size="14" text-anchor="start">MAJOR_TYPE_STRING: uint8</text><text x="2663.926" y="-2083.9" fill="#000" font-family="Times,serif" font-size="14" text-anchor="start">MAJOR_TYPE_ARRAY: uint8</text><text x="2663.926" y="-2067.1" fill="#000" font-family="Times,serif" font-size="14" text-anchor="start">MAJOR_TYPE_MAP: uint8</text><text x="2663.926" y="-2050.3" fill="#000" font-family="Times,serif" font-size="14" text-anchor="start">MAJOR_TYPE_CONTENT_FREE: uint8</text><polyline fill="none" stroke="#000" points="2655.926 -2042.1 3033.847 -2042.1"/><text x="2663.926" y="-2025.5" fill="#000" font-family="Times,serif" font-size="14" text-anchor="start">Private:</text><text x="2663.926" y="-2008.7" fill="#000" font-family="Times,serif" font-size="14" text-anchor="start">encodeType(buf: Buffer.buffer, major: uint8, value: uint)</text><text x="2663.926" y="-1991.9" fill="#000" font-family="Times,serif" font-size="14" text-anchor="start">encodeIndefiniteLengthType(buf: Buffer.buffer, major: uint8)</text><text x="2663.926" y="-1975.1" fill="#000" font-family="Times,serif" font-size="14" text-anchor="start">Internal:</text><text x="2663.926" y="-1958.3" fill="#000" font-family="Times,serif" font-size="14" text-anchor="start">encodeUInt(buf: Buffer.buffer, value: uint)</text><text x="2663.926" y="-1941.5" fill="#000" font-family="Times,serif" font-size="14" text-anchor="start">encodeInt(buf: Buffer.buffer, value: int)</text><text x="2663.926" y="-1924.7" fill="#000" font-family="Times,serif" font-size="14" text-anchor="start">encodeBytes(buf: Buffer.buffer, value: bytes)</text><text x="2663.926" y="-1907.9" fill="#000" font-family="Times,serif" font-size="14" text-anchor="start">encodeString(buf: Buffer.buffer, value: string)</text><text x="2663.926" y="-1891.1" fill="#000" font-family="Times,serif" font-size="14" text-anchor="start">startArray(buf: Buffer.buffer)</text><text x="2663.926" y="-1874.3" fill="#000" font-family="Times,serif" font-size="14" text-anchor="start">startMap(buf: Buffer.buffer)</text><text x="2663.926" y="-1857.5" fill="#000" font-family="Times,serif" font-size="14" text-anchor="start">endSequence(buf: Buffer.buffer)</text></g><g id="edge4" class="edge"><title>3-&gt;2</title><path fill="none" stroke="#000" stroke-dasharray="5 2" d="M2920.8135,-1778.7138C2915.1619,-1797.9912 2909.1448,-1818.5157 2903.0664,-1839.2493"/><polygon fill="#000" stroke="#000" points="2899.63 -1838.531 2900.175 -1849.112 2906.347 -1840.5 2899.63 -1838.531"/></g><g id="node5" class="node"><title>3struct0</title><polygon fill="#f2f2f2" stroke="#000" points="2474.877 -1084.5 2474.877 -1218.1 2642.896 -1218.1 2642.896 -1084.5 2474.877 -1084.5"/><text x="2558.887" y="-1201.5" fill="#000" font-family="Times,serif" font-size="14" text-anchor="middle">&lt;&lt;struct&gt;&gt;</text><text x="2558.887" y="-1184.7" fill="#000" font-family="Times,serif" font-size="14" text-anchor="middle">Request</text><polyline fill="none" stroke="#000" points="2474.877 -1176.5 2642.896 -1176.5"/><text x="2482.877" y="-1159.9" fill="#000" font-family="Times,serif" font-size="14" text-anchor="start">id: bytes32</text><text x="2482.877" y="-1143.1" fill="#000" font-family="Times,serif" font-size="14" text-anchor="start">callbackAddress: address</text><text x="2482.877" y="-1126.3" fill="#000" font-family="Times,serif" font-size="14" text-anchor="start">callbackFunctionId: bytes4</text><text x="2482.877" y="-1109.5" fill="#000" font-family="Times,serif" font-size="14" text-anchor="start">nonce: uint256</text><text x="2482.877" y="-1092.7" fill="#000" font-family="Times,serif" font-size="14" text-anchor="start">buf: Buffer.buffer</text></g><g id="edge2" class="edge"><title>3struct0-&gt;3</title><path fill="none" stroke="#000" d="M2563.2235,-1218.1118C2570.9358,-1290.0429 2592.3623,-1404.6669 2651.8869,-1483 2669.4068,-1506.0558 2690.7448,-1526.8307 2713.895,-1545.3815"/><polygon fill="#000" stroke="#000" points="2714.1 -1545.542 2721.291 -1546.078 2723.562 -1552.923 2716.371 -1552.386 2714.1 -1545.542"/></g><g id="node6" class="node"><title>4</title><polygon fill="#f2f2f2" stroke="#000" points="1433.722 -1611.9 1433.722 -1719.9 1704.052 -1719.9 1704.052 -1611.9 1433.722 -1611.9"/><text x="1568.887" y="-1703.3" fill="#000" font-family="Times,serif" font-size="14" text-anchor="middle">&lt;&lt;Abstract&gt;&gt;</text><text x="1568.887" y="-1686.5" fill="#000" font-family="Times,serif" font-size="14" text-anchor="middle">ENSResolver</text><polyline fill="none" stroke="#000" points="1433.722 -1678.3 1704.052 -1678.3"/><polyline fill="none" stroke="#000" points="1433.722 -1653.5 1704.052 -1653.5"/><text x="1441.722" y="-1636.9" fill="#000" font-family="Times,serif" font-size="14" text-anchor="start">Public:</text><text x="1441.722" y="-1620.1" fill="#000" font-family="Times,serif" font-size="14" text-anchor="start">&lt;&lt;abstract&gt;&gt; addr(node: bytes32): address</text></g><g id="node7" class="node"><title>5</title><polygon fill="#f2f2f2" stroke="#000" points="1721.94 -1519.5 1721.94 -1812.3 2145.833 -1812.3 2145.833 -1519.5 1721.94 -1519.5"/><text x="1933.887" y="-1795.7" fill="#000" font-family="Times,serif" font-size="14" text-anchor="middle">&lt;&lt;Interface&gt;&gt;</text><text x="1933.887" y="-1778.9" fill="#000" font-family="Times,serif" font-size="14" text-anchor="middle">ENSInterface</text><polyline fill="none" stroke="#000" points="1721.94 -1770.7 2145.833 -1770.7"/><polyline fill="none" stroke="#000" points="1721.94 -1745.9 2145.833 -1745.9"/><text x="1729.94" y="-1729.3" fill="#000" font-family="Times,serif" font-size="14" text-anchor="start">External:</text><text x="1729.94" y="-1712.5" fill="#000" font-family="Times,serif" font-size="14" text-anchor="start">setSubnodeOwner(node: bytes32, label: bytes32, owner: address)</text><text x="1729.94" y="-1695.7" fill="#000" font-family="Times,serif" font-size="14" text-anchor="start">setResolver(node: bytes32, resolver: address)</text><text x="1729.94" y="-1678.9" fill="#000" font-family="Times,serif" font-size="14" text-anchor="start">setOwner(node: bytes32, owner: address)</text><text x="1729.94" y="-1662.1" fill="#000" font-family="Times,serif" font-size="14" text-anchor="start">setTTL(node: bytes32, ttl: uint64)</text><text x="1729.94" y="-1645.3" fill="#000" font-family="Times,serif" font-size="14" text-anchor="start">owner(node: bytes32): address</text><text x="1729.94" y="-1628.5" fill="#000" font-family="Times,serif" font-size="14" text-anchor="start">resolver(node: bytes32): address</text><text x="1729.94" y="-1611.7" fill="#000" font-family="Times,serif" font-size="14" text-anchor="start">ttl(node: bytes32): uint64</text><text x="1729.94" y="-1594.9" fill="#000" font-family="Times,serif" font-size="14" text-anchor="start">Public:</text><text x="1729.94" y="-1578.1" fill="#000" font-family="Times,serif" font-size="14" text-anchor="start">&lt;&lt;event&gt;&gt; NewOwner(node: bytes32, label: bytes32, owner: address)</text><text x="1729.94" y="-1561.3" fill="#000" font-family="Times,serif" font-size="14" text-anchor="start">&lt;&lt;event&gt;&gt; Transfer(node: bytes32, owner: address)</text><text x="1729.94" y="-1544.5" fill="#000" font-family="Times,serif" font-size="14" text-anchor="start">&lt;&lt;event&gt;&gt; NewResolver(node: bytes32, resolver: address)</text><text x="1729.94" y="-1527.7" fill="#000" font-family="Times,serif" font-size="14" text-anchor="start">&lt;&lt;event&gt;&gt; NewTTL(node: bytes32, ttl: uint64)</text></g><g id="node8" class="node"><title>6</title><polygon fill="#f2f2f2" stroke="#000" points="0 -1519.5 0 -1812.3 451.774 -1812.3 451.774 -1519.5 0 -1519.5"/><text x="225.887" y="-1795.7" fill="#000" font-family="Times,serif" font-size="14" text-anchor="middle">&lt;&lt;Interface&gt;&gt;</text><text x="225.887" y="-1778.9" fill="#000" font-family="Times,serif" font-size="14" text-anchor="middle">LinkTokenInterface</text><polyline fill="none" stroke="#000" points="0 -1770.7 451.774 -1770.7"/><polyline fill="none" stroke="#000" points="0 -1745.9 451.774 -1745.9"/><text x="8" y="-1729.3" fill="#000" font-family="Times,serif" font-size="14" text-anchor="start">External:</text><text x="8" y="-1712.5" fill="#000" font-family="Times,serif" font-size="14" text-anchor="start">name(): (tokenName: string)</text><text x="8" y="-1695.7" fill="#000" font-family="Times,serif" font-size="14" text-anchor="start">allowance(owner: address, spender: address): (success: bool)</text><text x="8" y="-1678.9" fill="#000" font-family="Times,serif" font-size="14" text-anchor="start">balanceOf(owner: address): (balance: uint256)</text><text x="8" y="-1662.1" fill="#000" font-family="Times,serif" font-size="14" text-anchor="start">decimals(): (decimalPlaces: uint8)</text><text x="8" y="-1645.3" fill="#000" font-family="Times,serif" font-size="14" text-anchor="start">decreaseApproval(spender: address, addedValue: uint256): (success: bool)</text><text x="8" y="-1628.5" fill="#000" font-family="Times,serif" font-size="14" text-anchor="start">increaseApproval(spender: address, subtractedValue: uint256)</text><text x="8" y="-1611.7" fill="#000" font-family="Times,serif" font-size="14" text-anchor="start">approve(spender: address, value: uint256): (success: bool)</text><text x="8" y="-1594.9" fill="#000" font-family="Times,serif" font-size="14" text-anchor="start">symbol(): (tokenSymbol: string)</text><text x="8" y="-1578.1" fill="#000" font-family="Times,serif" font-size="14" text-anchor="start">totalSupply(): (totalTokensIssued: uint256)</text><text x="8" y="-1561.3" fill="#000" font-family="Times,serif" font-size="14" text-anchor="start">transfer(to: address, value: uint256): (success: bool)</text><text x="8" y="-1544.5" fill="#000" font-family="Times,serif" font-size="14" text-anchor="start">transferAndCall(to: address, value: uint256, data: bytes): (success: bool)</text><text x="8" y="-1527.7" fill="#000" font-family="Times,serif" font-size="14" text-anchor="start">transferFrom(from: address, to: address, value: uint256): (success: bool)</text></g><g id="edge7" class="edge"><title>2-&gt;1</title><path fill="none" stroke="#000" stroke-dasharray="5 2" d="M2729.677,-2226.1342C2723.935,-2235.5256 2718.1618,-2244.9682 2712.4051,-2254.3836"/><polygon fill="#000" stroke="#000" points="2709.355 -2252.663 2707.124 -2263.021 2715.327 -2256.315 2709.355 -2252.663"/></g><g id="node10" class="node"><title>8</title><polygon fill="#f2f2f2" stroke="#000" points="2164.303 -1611.9 2164.303 -1719.9 2319.47 -1719.9 2319.47 -1611.9 2164.303 -1611.9"/><text x="2241.887" y="-1703.3" fill="#000" font-family="Times,serif" font-size="14" text-anchor="middle">&lt;&lt;Interface&gt;&gt;</text><text x="2241.887" y="-1686.5" fill="#000" font-family="Times,serif" font-size="14" text-anchor="middle">PointerInterface</text><polyline fill="none" stroke="#000" points="2164.303 -1678.3 2319.47 -1678.3"/><polyline fill="none" stroke="#000" points="2164.303 -1653.5 2319.47 -1653.5"/><text x="2172.303" y="-1636.9" fill="#000" font-family="Times,serif" font-size="14" text-anchor="start">External:</text><text x="2172.303" y="-1620.1" fill="#000" font-family="Times,serif" font-size="14" text-anchor="start">getAddress(): address</text></g><g id="node11" class="node"><title>9</title><polygon fill="#f2f2f2" stroke="#000" points="2337.508 -1586.7 2337.508 -1745.1 2606.266 -1745.1 2606.266 -1586.7 2337.508 -1586.7"/><text x="2471.887" y="-1728.5" fill="#000" font-family="Times,serif" font-size="14" text-anchor="middle">&lt;&lt;Library&gt;&gt;</text><text x="2471.887" y="-1711.7" fill="#000" font-family="Times,serif" font-size="14" text-anchor="middle">SafeMath</text><polyline fill="none" stroke="#000" points="2337.508 -1703.5 2606.266 -1703.5"/><polyline fill="none" stroke="#000" points="2337.508 -1678.7 2606.266 -1678.7"/><text x="2345.508" y="-1662.1" fill="#000" font-family="Times,serif" font-size="14" text-anchor="start">Internal:</text><text x="2345.508" y="-1645.3" fill="#000" font-family="Times,serif" font-size="14" text-anchor="start">mul(_a: uint256, _b: uint256): (c: uint256)</text><text x="2345.508" y="-1628.5" fill="#000" font-family="Times,serif" font-size="14" text-anchor="start">div(_a: uint256, _b: uint256): uint256</text><text x="2345.508" y="-1611.7" fill="#000" font-family="Times,serif" font-size="14" text-anchor="start">sub(_a: uint256, _b: uint256): uint256</text><text x="2345.508" y="-1594.9" fill="#000" font-family="Times,serif" font-size="14" text-anchor="start">add(_a: uint256, _b: uint256): (c: uint256)</text></g><g id="node12" class="node"><title>10</title><polygon fill="#f2f2f2" stroke="#000" points="1718.883 -820.1 1718.883 -1482.5 2456.891 -1482.5 2456.891 -820.1 1718.883 -820.1"/><text x="2087.887" y="-1465.9" fill="#000" font-family="Times,serif" font-size="14" text-anchor="middle">ChainlinkClient</text><polyline fill="none" stroke="#000" points="1718.883 -1457.7 2456.891 -1457.7"/><text x="1726.883" y="-1441.1" fill="#000" font-family="Times,serif" font-size="14" text-anchor="start">Private:</text><text x="1726.883" y="-1424.3" fill="#000" font-family="Times,serif" font-size="14" text-anchor="start">AMOUNT_OVERRIDE: uint256</text><text x="1726.883" y="-1407.5" fill="#000" font-family="Times,serif" font-size="14" text-anchor="start">SENDER_OVERRIDE: address</text><text x="1726.883" y="-1390.7" fill="#000" font-family="Times,serif" font-size="14" text-anchor="start">ARGS_VERSION: uint256</text><text x="1726.883" y="-1373.9" fill="#000" font-family="Times,serif" font-size="14" text-anchor="start">ENS_TOKEN_SUBNAME: bytes32</text><text x="1726.883" y="-1357.1" fill="#000" font-family="Times,serif" font-size="14" text-anchor="start">ENS_ORACLE_SUBNAME: bytes32</text><text x="1726.883" y="-1340.3" fill="#000" font-family="Times,serif" font-size="14" text-anchor="start">LINK_TOKEN_POINTER: address</text><text x="1726.883" y="-1323.5" fill="#000" font-family="Times,serif" font-size="14" text-anchor="start">ens: ENSInterface</text><text x="1726.883" y="-1306.7" fill="#000" font-family="Times,serif" font-size="14" text-anchor="start">ensNode: bytes32</text><text x="1726.883" y="-1289.9" fill="#000" font-family="Times,serif" font-size="14" text-anchor="start">link: LinkTokenInterface</text><text x="1726.883" y="-1273.1" fill="#000" font-family="Times,serif" font-size="14" text-anchor="start">oracle: ChainlinkRequestInterface</text><text x="1726.883" y="-1256.3" fill="#000" font-family="Times,serif" font-size="14" text-anchor="start">requests: uint256</text><text x="1726.883" y="-1239.5" fill="#000" font-family="Times,serif" font-size="14" text-anchor="start">pendingRequests: mapping(bytes32=&gt;address)</text><text x="1726.883" y="-1222.7" fill="#000" font-family="Times,serif" font-size="14" text-anchor="start">Internal:</text><text x="1726.883" y="-1205.9" fill="#000" font-family="Times,serif" font-size="14" text-anchor="start">LINK: uint256</text><polyline fill="none" stroke="#000" points="1718.883 -1197.7 2456.891 -1197.7"/><text x="1726.883" y="-1181.1" fill="#000" font-family="Times,serif" font-size="14" text-anchor="start">Private:</text><text x="1726.883" y="-1164.3" fill="#000" font-family="Times,serif" font-size="14" text-anchor="start">encodeRequest(_req: Chainlink.Request): bytes</text><text x="1726.883" y="-1147.5" fill="#000" font-family="Times,serif" font-size="14" text-anchor="start">Internal:</text><text x="1726.883" y="-1130.7" fill="#000" font-family="Times,serif" font-size="14" text-anchor="start">setPublicChainlinkToken()</text><text x="1726.883" y="-1113.9" fill="#000" font-family="Times,serif" font-size="14" text-anchor="start">buildChainlinkRequest(_specId: bytes32, _callbackAddress: address, _callbackFunctionSignature: bytes4): Chainlink.Request</text><text x="1726.883" y="-1097.1" fill="#000" font-family="Times,serif" font-size="14" text-anchor="start">sendChainlinkRequestTo(_oracle: address, _req: Chainlink.Request, _payment: uint256): (requestId: bytes32)</text><text x="1726.883" y="-1080.3" fill="#000" font-family="Times,serif" font-size="14" text-anchor="start">cancelChainlinkRequest(_requestId: bytes32, _payment: uint256, _callbackFunc: bytes4, _expiration: uint256)</text><text x="1726.883" y="-1063.5" fill="#000" font-family="Times,serif" font-size="14" text-anchor="start">setChainlinkOracle(_oracle: address)</text><text x="1726.883" y="-1046.7" fill="#000" font-family="Times,serif" font-size="14" text-anchor="start">setChainlinkToken(_link: address)</text><text x="1726.883" y="-1029.9" fill="#000" font-family="Times,serif" font-size="14" text-anchor="start">sendChainlinkRequest(_req: Chainlink.Request, _payment: uint256): bytes32</text><text x="1726.883" y="-1013.1" fill="#000" font-family="Times,serif" font-size="14" text-anchor="start">chainlinkTokenAddress(): address</text><text x="1726.883" y="-996.3" fill="#000" font-family="Times,serif" font-size="14" text-anchor="start">chainlinkOracleAddress(): address</text><text x="1726.883" y="-979.5" fill="#000" font-family="Times,serif" font-size="14" text-anchor="start">addChainlinkExternalRequest(_oracle: address, _requestId: bytes32)</text><text x="1726.883" y="-962.7" fill="#000" font-family="Times,serif" font-size="14" text-anchor="start">useChainlinkWithENS(_ens: address, _node: bytes32)</text><text x="1726.883" y="-945.9" fill="#000" font-family="Times,serif" font-size="14" text-anchor="start">updateChainlinkOracleWithENS()</text><text x="1726.883" y="-929.1" fill="#000" font-family="Times,serif" font-size="14" text-anchor="start">validateChainlinkCallback(_requestId: bytes32)</text><text x="1726.883" y="-912.3" fill="#000" font-family="Times,serif" font-size="14" text-anchor="start">Public:</text><text x="1726.883" y="-895.5" fill="#000" font-family="Times,serif" font-size="14" text-anchor="start">&lt;&lt;event&gt;&gt; ChainlinkRequested(id: bytes32)</text><text x="1726.883" y="-878.7" fill="#000" font-family="Times,serif" font-size="14" text-anchor="start">&lt;&lt;event&gt;&gt; ChainlinkFulfilled(id: bytes32)</text><text x="1726.883" y="-861.9" fill="#000" font-family="Times,serif" font-size="14" text-anchor="start">&lt;&lt;event&gt;&gt; ChainlinkCancelled(id: bytes32)</text><text x="1726.883" y="-845.1" fill="#000" font-family="Times,serif" font-size="14" text-anchor="start">&lt;&lt;modifier&gt;&gt; recordChainlinkFulfillment(_requestId: bytes32)</text><text x="1726.883" y="-828.3" fill="#000" font-family="Times,serif" font-size="14" text-anchor="start">&lt;&lt;modifier&gt;&gt; notPendingRequest(_requestId: bytes32)</text></g><g id="edge12" class="edge"><title>10-&gt;7</title><path fill="none" stroke="#000" d="M1718.5095,-1317.3102C1505.4439,-1413.0687 1249.2519,-1528.2097 1091.2354,-1599.2274"/><polygon fill="#000" stroke="#000" points="1089.597 -1596.127 1081.91 -1603.418 1092.466 -1602.512 1089.597 -1596.127"/></g><g id="edge8" class="edge"><title>10-&gt;3</title><path fill="none" stroke="#000" stroke-dasharray="5 2" d="M2456.8914,-1478.2399C2459.8852,-1479.8546 2462.8839,-1481.4417 2465.8869,-1483 2526.3579,-1514.3789 2550.282,-1497.3762 2614.8869,-1519 2641.9377,-1528.0541 2669.8206,-1538.3958 2697.4301,-1549.3043"/><polygon fill="#000" stroke="#000" points="2696.196 -1552.58 2706.781 -1553.024 2698.783 -1546.076 2696.196 -1552.58"/></g><g id="edge14" class="edge"><title>10-&gt;4</title><path fill="none" stroke="#000" stroke-dasharray="5 2" d="M1749.2748,-1482.7167C1736.975,-1494.9469 1724.8137,-1507.0715 1712.8869,-1519 1685.0741,-1546.8167 1654.5375,-1577.8907 1628.7695,-1604.2697"/><polygon fill="#000" stroke="#000" points="1626.115 -1601.978 1621.634 -1611.579 1631.124 -1606.868 1626.115 -1601.978"/></g><g id="edge10" class="edge"><title>10-&gt;5</title><path fill="none" stroke="#000" d="M1988.7237,-1482.6597C1985.9918,-1491.7884 1983.3006,-1500.7811 1980.6656,-1509.5863"/><polygon fill="#000" stroke="#000" points="1977.229 -1508.861 1977.715 -1519.445 1983.935 -1510.868 1977.229 -1508.861"/></g><g id="edge11" class="edge"><title>10-&gt;6</title><path fill="none" stroke="#000" d="M1718.5913,-1293.9799C1522.8716,-1363.259 1276.6316,-1440.5265 1049.8869,-1483 795.3768,-1530.6745 712.7593,-1441.3482 461.7209,-1518.9209"/><polygon fill="#000" stroke="#000" points="460.44 -1515.655 451.953 -1521.997 462.542 -1522.332 460.44 -1515.655"/></g><g id="edge13" class="edge"><title>10-&gt;8</title><path fill="none" stroke="#000" stroke-dasharray="5 2" d="M2187.0501,-1482.6597C2200.5744,-1527.8518 2213.1015,-1569.7119 2222.7583,-1601.9806"/><polygon fill="#000" stroke="#000" points="2219.441 -1603.103 2225.661 -1611.68 2226.147 -1601.097 2219.441 -1603.103"/></g><g id="edge9" class="edge"><title>10-&gt;9</title><path fill="none" stroke="#000" stroke-dasharray="5 2" d="M2335.1511,-1482.6597C2361.0814,-1517.4091 2385.5416,-1550.1883 2406.4084,-1578.152"/><polygon fill="#000" stroke="#000" points="2403.695 -1580.368 2412.481 -1586.29 2409.305 -1576.182 2403.695 -1580.368"/></g><g id="node13" class="node"><title>11</title><polygon fill="#f2f2f2" stroke="#000" points="2661.254 -1097.3 2661.254 -1205.3 2884.52 -1205.3 2884.52 -1097.3 2661.254 -1097.3"/><text x="2772.887" y="-1188.7" fill="#000" font-family="Times,serif" font-size="14" text-anchor="middle">&lt;&lt;Library&gt;&gt;</text><text x="2772.887" y="-1171.9" fill="#000" font-family="Times,serif" font-size="14" text-anchor="middle">SignedSafeMath</text><polyline fill="none" stroke="#000" points="2661.254 -1163.7 2884.52 -1163.7"/><polyline fill="none" stroke="#000" points="2661.254 -1138.9 2884.52 -1138.9"/><text x="2669.254" y="-1122.3" fill="#000" font-family="Times,serif" font-size="14" text-anchor="start">Internal:</text><text x="2669.254" y="-1105.5" fill="#000" font-family="Times,serif" font-size="14" text-anchor="start">add(_a: int256, _b: int256): int256</text></g><g id="node14" class="node"><title>12</title><polygon fill="#f2f2f2" stroke="#000" points="2902.45 -1038.5 2902.45 -1264.1 3387.324 -1264.1 3387.324 -1038.5 2902.45 -1038.5"/><text x="3144.887" y="-1247.5" fill="#000" font-family="Times,serif" font-size="14" text-anchor="middle">Ownable</text><polyline fill="none" stroke="#000" points="2902.45 -1239.3 3387.324 -1239.3"/><text x="2910.45" y="-1222.7" fill="#000" font-family="Times,serif" font-size="14" text-anchor="start">Public:</text><text x="2910.45" y="-1205.9" fill="#000" font-family="Times,serif" font-size="14" text-anchor="start">owner: address</text><polyline fill="none" stroke="#000" points="2902.45 -1197.7 3387.324 -1197.7"/><text x="2910.45" y="-1181.1" fill="#000" font-family="Times,serif" font-size="14" text-anchor="start">Internal:</text><text x="2910.45" y="-1164.3" fill="#000" font-family="Times,serif" font-size="14" text-anchor="start">_transferOwnership(_newOwner: address)</text><text x="2910.45" y="-1147.5" fill="#000" font-family="Times,serif" font-size="14" text-anchor="start">Public:</text><text x="2910.45" y="-1130.7" fill="#000" font-family="Times,serif" font-size="14" text-anchor="start">&lt;&lt;event&gt;&gt; OwnershipRenounced(previousOwner: address)</text><text x="2910.45" y="-1113.9" fill="#000" font-family="Times,serif" font-size="14" text-anchor="start">&lt;&lt;event&gt;&gt; OwnershipTransferred(previousOwner: address, newOwner: address)</text><text x="2910.45" y="-1097.1" fill="#000" font-family="Times,serif" font-size="14" text-anchor="start">&lt;&lt;modifier&gt;&gt; onlyOwner()</text><text x="2910.45" y="-1080.3" fill="#000" font-family="Times,serif" font-size="14" text-anchor="start">constructor()</text><text x="2910.45" y="-1063.5" fill="#000" font-family="Times,serif" font-size="14" text-anchor="start">renounceOwnership()</text><text x="2910.45" y="-1046.7" fill="#000" font-family="Times,serif" font-size="14" text-anchor="start">transferOwnership(_newOwner: address)</text></g><g id="node15" class="node"><title>13</title><polygon fill="#f2f2f2" stroke="#000" points="2403.872 -137.5 2403.872 -783.1 3141.902 -783.1 3141.902 -137.5 2403.872 -137.5"/><text x="2772.887" y="-766.5" fill="#000" font-family="Times,serif" font-size="14" text-anchor="middle">Aggregator</text><polyline fill="none" stroke="#000" points="2403.872 -758.3 3141.902 -758.3"/><text x="2411.872" y="-741.7" fill="#000" font-family="Times,serif" font-size="14" text-anchor="start">Private:</text><text x="2411.872" y="-724.9" fill="#000" font-family="Times,serif" font-size="14" text-anchor="start">answerCounter: uint256</text><text x="2411.872" y="-708.1" fill="#000" font-family="Times,serif" font-size="14" text-anchor="start">requestAnswers: mapping(bytes32=&gt;uint256)</text><text x="2411.872" y="-691.3" fill="#000" font-family="Times,serif" font-size="14" text-anchor="start">answers: mapping(uint256=&gt;Answer)</text><text x="2411.872" y="-674.5" fill="#000" font-family="Times,serif" font-size="14" text-anchor="start">MAX_ORACLE_COUNT: uint256</text><text x="2411.872" y="-657.7" fill="#000" font-family="Times,serif" font-size="14" text-anchor="start">Public:</text><text x="2411.872" y="-640.9" fill="#000" font-family="Times,serif" font-size="14" text-anchor="start">currentAnswer: int256</text><text x="2411.872" y="-624.1" fill="#000" font-family="Times,serif" font-size="14" text-anchor="start">latestCompletedAnswer: uint256</text><text x="2411.872" y="-607.3" fill="#000" font-family="Times,serif" font-size="14" text-anchor="start">updatedHeight: uint256</text><text x="2411.872" y="-590.5" fill="#000" font-family="Times,serif" font-size="14" text-anchor="start">paymentAmount: uint128</text><text x="2411.872" y="-573.7" fill="#000" font-family="Times,serif" font-size="14" text-anchor="start">minimumResponses: uint128</text><text x="2411.872" y="-556.9" fill="#000" font-family="Times,serif" font-size="14" text-anchor="start">jobIds: bytes32[]</text><text x="2411.872" y="-540.1" fill="#000" font-family="Times,serif" font-size="14" text-anchor="start">oracles: address[]</text><text x="2411.872" y="-523.3" fill="#000" font-family="Times,serif" font-size="14" text-anchor="start">authorizedRequesters: mapping(address=&gt;bool)</text><polyline fill="none" stroke="#000" points="2403.872 -515.1 3141.902 -515.1"/><text x="2411.872" y="-498.5" fill="#000" font-family="Times,serif" font-size="14" text-anchor="start">Private:</text><text x="2411.872" y="-481.7" fill="#000" font-family="Times,serif" font-size="14" text-anchor="start">updateLatestAnswer(_answerId: uint256)</text><text x="2411.872" y="-464.9" fill="#000" font-family="Times,serif" font-size="14" text-anchor="start">quickselect(_a: int256[], _k: uint256): int256</text><text x="2411.872" y="-448.1" fill="#000" font-family="Times,serif" font-size="14" text-anchor="start">swap(_a: int256[], _b: int256[]): (int256[], int256[])</text><text x="2411.872" y="-431.3" fill="#000" font-family="Times,serif" font-size="14" text-anchor="start">deleteAnswer(_answerId: uint256)</text><text x="2411.872" y="-414.5" fill="#000" font-family="Times,serif" font-size="14" text-anchor="start">External:</text><text x="2411.872" y="-397.7" fill="#000" font-family="Times,serif" font-size="14" text-anchor="start">requestRateUpdate()</text><text x="2411.872" y="-380.9" fill="#000" font-family="Times,serif" font-size="14" text-anchor="start">chainlinkCallback(_clRequestId: bytes32, _response: int256)</text><text x="2411.872" y="-364.1" fill="#000" font-family="Times,serif" font-size="14" text-anchor="start">setAuthorization(_requester: address, _allowed: bool)</text><text x="2411.872" y="-347.3" fill="#000" font-family="Times,serif" font-size="14" text-anchor="start">cancelRequest(_requestId: bytes32, _payment: uint256, _expiration: uint256)</text><text x="2411.872" y="-330.5" fill="#000" font-family="Times,serif" font-size="14" text-anchor="start">destroy()</text><text x="2411.872" y="-313.7" fill="#000" font-family="Times,serif" font-size="14" text-anchor="start">Public:</text><text x="2411.872" y="-296.9" fill="#000" font-family="Times,serif" font-size="14" text-anchor="start">&lt;&lt;event&gt;&gt; ResponseReceived(response: int256, answerId: uint256, sender: address)</text><text x="2411.872" y="-280.1" fill="#000" font-family="Times,serif" font-size="14" text-anchor="start">&lt;&lt;event&gt;&gt; AnswerUpdated(current: int256, answerId: uint256)</text><text x="2411.872" y="-263.3" fill="#000" font-family="Times,serif" font-size="14" text-anchor="start">&lt;&lt;modifier&gt;&gt; ensureMinResponsesReceived(_answerId: uint256)</text><text x="2411.872" y="-246.5" fill="#000" font-family="Times,serif" font-size="14" text-anchor="start">&lt;&lt;modifier&gt;&gt; ensureAllResponsesReceived(_answerId: uint256)</text><text x="2411.872" y="-229.7" fill="#000" font-family="Times,serif" font-size="14" text-anchor="start">&lt;&lt;modifier&gt;&gt; ensureOnlyLatestAnswer(_answerId: uint256)</text><text x="2411.872" y="-212.9" fill="#000" font-family="Times,serif" font-size="14" text-anchor="start">&lt;&lt;modifier&gt;&gt; validateAnswerRequirements(_minimumResponses: uint256, _oracles: address[], _jobIds: bytes32[])</text><text x="2411.872" y="-196.1" fill="#000" font-family="Times,serif" font-size="14" text-anchor="start">&lt;&lt;modifier&gt;&gt; ensureAuthorizedRequester()</text><text x="2411.872" y="-179.3" fill="#000" font-family="Times,serif" font-size="14" text-anchor="start">constructor(_link: address, _paymentAmount: uint128, _minimumResponses: uint128, _oracles: address[], _jobIds: bytes32[])</text><text x="2411.872" y="-162.5" fill="#000" font-family="Times,serif" font-size="14" text-anchor="start">updateRequestDetails(_paymentAmount: uint128, _minimumResponses: uint128, _oracles: address[], _jobIds: bytes32[])</text><text x="2411.872" y="-145.7" fill="#000" font-family="Times,serif" font-size="14" text-anchor="start">transferLINK(_recipient: address, _amount: uint256)</text></g><g id="edge18" class="edge"><title>13-&gt;3</title><path fill="none" stroke="#000" stroke-dasharray="5 2" d="M3142.0019,-591.5003C3242.0705,-645.9569 3338.5068,-720.2686 3395.8869,-819.6 3543.369,-1074.9082 3559.7369,-1237.8747 3395.8869,-1483 3369.5508,-1522.3997 3332.9929,-1553.3224 3292.0789,-1577.5894"/><polygon fill="#000" stroke="#000" points="3290.194 -1574.636 3283.284 -1582.667 3293.695 -1580.698 3290.194 -1574.636"/></g><g id="edge19" class="edge"><title>13-&gt;6</title><path fill="none" stroke="#000" stroke-dasharray="5 2" d="M2403.6882,-566.6596C2196.2393,-630.9661 1934.6335,-719.7173 1709.8869,-819.6 1128.4995,-1077.9822 1008.3443,-1194.8657 460.8869,-1519 460.7931,-1519.0555 460.6993,-1519.1111 460.6054,-1519.1667"/><polygon fill="#000" stroke="#000" points="458.639 -1516.264 451.83 -1524.381 462.215 -1522.282 458.639 -1516.264"/></g><g id="edge15" class="edge"><title>13-&gt;10</title><path fill="none" stroke="#000" d="M2452.6989,-783.2926C2447.6866,-788.3487 2442.6679,-793.4114 2437.6472,-798.4761"/><polygon fill="none" stroke="#000" points="2429.996 -791.28 2416.332 -819.978 2444.91 -806.064 2429.996 -791.28"/></g><g id="edge17" class="edge"><title>13-&gt;11</title><path fill="none" stroke="#000" stroke-dasharray="5 2" d="M2772.8869,-783.2926C2772.8869,-898.3404 2772.8869,-1016.7304 2772.8869,-1087.1457"/><polygon fill="#000" stroke="#000" points="2769.387 -1087.181 2772.887 -1097.181 2776.387 -1087.181 2769.387 -1087.181"/></g><g id="edge16" class="edge"><title>13-&gt;12</title><path fill="none" stroke="#000" d="M2946.77,-783.2926C2989.9866,-863.5686 3034.0793,-945.4719 3069.6626,-1011.5689"/><polygon fill="none" stroke="#000" points="3060.646 -1016.972 3084.112 -1038.41 3079.137 -1007.017 3060.646 -1016.972"/></g><g id="node16" class="node"><title>13struct0</title><polygon fill="#f2f2f2" stroke="#000" points="2683.025 -.5 2683.025 -100.5 2862.749 -100.5 2862.749 -.5 2683.025 -.5"/><text x="2772.887" y="-83.9" fill="#000" font-family="Times,serif" font-size="14" text-anchor="middle">&lt;&lt;struct&gt;&gt;</text><text x="2772.887" y="-67.1" fill="#000" font-family="Times,serif" font-size="14" text-anchor="middle">Answer</text><polyline fill="none" stroke="#000" points="2683.025 -58.9 2862.749 -58.9"/><text x="2691.025" y="-42.3" fill="#000" font-family="Times,serif" font-size="14" text-anchor="start">minimumResponses: uint128</text><text x="2691.025" y="-25.5" fill="#000" font-family="Times,serif" font-size="14" text-anchor="start">maxResponses: uint128</text><text x="2691.025" y="-8.7" fill="#000" font-family="Times,serif" font-size="14" text-anchor="start">responses: int256[]</text></g><g id="edge3" class="edge"><title>13struct0-&gt;13</title><path fill="none" stroke="#000" d="M2772.8869,-100.7495C2772.8869,-108.2433 2772.8869,-116.397 2772.8869,-125.0849"/><polygon fill="#000" stroke="#000" points="2772.887 -125.251 2776.887 -131.251 2772.887 -137.251 2768.887 -131.251 2772.887 -125.251"/></g></g></svg>