<svg xmlns="http://www.w3.org/2000/svg" xmlns:xlink="http://www.w3.org/1999/xlink" width="2664" height="3455pt" viewBox="0 0 1998.02 3454.8"><g id="graph0" class="graph" transform="scale(1 1) rotate(0) translate(4 3450.8)"><title>UmlClassDiagram</title><polygon fill="#fff" stroke="transparent" points="-4 4 -4 -3450.8 1994.02 -3450.8 1994.02 4 -4 4"/><g id="node1" class="node"><title>9</title><polygon fill="#f2f2f2" stroke="#000" points="255.587 -2773.3 255.587 -3150.1 988.202 -3150.1 988.202 -2773.3 255.587 -2773.3"/><text x="621.894" y="-3133.5" fill="#000" font-family="Times,serif" font-size="14" text-anchor="middle">ClockAuctionBase</text><polyline fill="none" stroke="#000" points="255.587 -3125.3 988.202 -3125.3"/><text x="263.587" y="-3108.7" fill="#000" font-family="Times,serif" font-size="14" text-anchor="start">Public:</text><text x="263.587" y="-3091.9" fill="#000" font-family="Times,serif" font-size="14" text-anchor="start">nonFungibleContract: ERC721</text><text x="263.587" y="-3075.1" fill="#000" font-family="Times,serif" font-size="14" text-anchor="start">ownerCut: uint256</text><text x="263.587" y="-3058.3" fill="#000" font-family="Times,serif" font-size="14" text-anchor="start">tokenIdToAuction: mapping(uint256=&gt;Auction)</text><polyline fill="none" stroke="#000" points="255.587 -3050.1 988.202 -3050.1"/><text x="263.587" y="-3033.5" fill="#000" font-family="Times,serif" font-size="14" text-anchor="start">Internal:</text><text x="263.587" y="-3016.7" fill="#000" font-family="Times,serif" font-size="14" text-anchor="start">_bid(_tokenId: uint256, _bidAmount: uint256): uint256</text><text x="263.587" y="-2999.9" fill="#000" font-family="Times,serif" font-size="14" text-anchor="start">_owns(_claimant: address, _tokenId: uint256): bool</text><text x="263.587" y="-2983.1" fill="#000" font-family="Times,serif" font-size="14" text-anchor="start">_transfer(_receiver: address, _tokenId: uint256)</text><text x="263.587" y="-2966.3" fill="#000" font-family="Times,serif" font-size="14" text-anchor="start">_addAuction(_tokenId: uint256, _auction: Auction)</text><text x="263.587" y="-2949.5" fill="#000" font-family="Times,serif" font-size="14" text-anchor="start">_cancelAuction(_tokenId: uint256, _seller: address)</text><text x="263.587" y="-2932.7" fill="#000" font-family="Times,serif" font-size="14" text-anchor="start">_escrow(_owner: address, _tokenId: uint256)</text><text x="263.587" y="-2915.9" fill="#000" font-family="Times,serif" font-size="14" text-anchor="start">_removeAuction(_tokenId: uint256)</text><text x="263.587" y="-2899.1" fill="#000" font-family="Times,serif" font-size="14" text-anchor="start">_isOnAuction(_auction: Auction): bool</text><text x="263.587" y="-2882.3" fill="#000" font-family="Times,serif" font-size="14" text-anchor="start">_currentPrice(_auction: Auction): uint256</text><text x="263.587" y="-2865.5" fill="#000" font-family="Times,serif" font-size="14" text-anchor="start">_computeCurrentPrice(_startingPrice: uint256, _endingPrice: uint256, _duration: uint256, _secondsPassed: uint256): uint256</text><text x="263.587" y="-2848.7" fill="#000" font-family="Times,serif" font-size="14" text-anchor="start">_computeCut(_price: uint256): uint256</text><text x="263.587" y="-2831.9" fill="#000" font-family="Times,serif" font-size="14" text-anchor="start">Public:</text><text x="263.587" y="-2815.1" fill="#000" font-family="Times,serif" font-size="14" text-anchor="start">&lt;&lt;event&gt;&gt; AuctionCreated(tokenId: uint256, startingPrice: uint256, endingPrice: uint256, duration: uint256)</text><text x="263.587" y="-2798.3" fill="#000" font-family="Times,serif" font-size="14" text-anchor="start">&lt;&lt;event&gt;&gt; AuctionSuccessful(tokenId: uint256, totalPrice: uint256, winner: address)</text><text x="263.587" y="-2781.5" fill="#000" font-family="Times,serif" font-size="14" text-anchor="start">&lt;&lt;event&gt;&gt; AuctionCancelled(tokenId: uint256)</text></g><g id="node11" class="node"><title>2</title><polygon fill="#f2f2f2" stroke="#000" points="0 -3187.1 0 -3446.3 455.789 -3446.3 455.789 -3187.1 0 -3187.1"/><text x="227.894" y="-3429.7" fill="#000" font-family="Times,serif" font-size="14" text-anchor="middle">&lt;&lt;Abstract&gt;&gt;</text><text x="227.894" y="-3412.9" fill="#000" font-family="Times,serif" font-size="14" text-anchor="middle">ERC721</text><polyline fill="none" stroke="#000" points="0 -3404.7 455.789 -3404.7"/><polyline fill="none" stroke="#000" points="0 -3379.9 455.789 -3379.9"/><text x="8" y="-3363.3" fill="#000" font-family="Times,serif" font-size="14" text-anchor="start">External:</text><text x="8" y="-3346.5" fill="#000" font-family="Times,serif" font-size="14" text-anchor="start">&lt;&lt;abstract&gt;&gt; ownerOf(_tokenId: uint256): (owner: address)</text><text x="8" y="-3329.7" fill="#000" font-family="Times,serif" font-size="14" text-anchor="start">&lt;&lt;abstract&gt;&gt; approve(_to: address, _tokenId: uint256)</text><text x="8" y="-3312.9" fill="#000" font-family="Times,serif" font-size="14" text-anchor="start">&lt;&lt;abstract&gt;&gt; transfer(_to: address, _tokenId: uint256)</text><text x="8" y="-3296.1" fill="#000" font-family="Times,serif" font-size="14" text-anchor="start">&lt;&lt;abstract&gt;&gt; transferFrom(_from: address, _to: address, _tokenId: uint256)</text><text x="8" y="-3279.3" fill="#000" font-family="Times,serif" font-size="14" text-anchor="start">&lt;&lt;abstract&gt;&gt; supportsInterface(_interfaceID: bytes4): bool</text><text x="8" y="-3262.5" fill="#000" font-family="Times,serif" font-size="14" text-anchor="start">Public:</text><text x="8" y="-3245.7" fill="#000" font-family="Times,serif" font-size="14" text-anchor="start">&lt;&lt;abstract&gt;&gt; totalSupply(): (total: uint256)</text><text x="8" y="-3228.9" fill="#000" font-family="Times,serif" font-size="14" text-anchor="start">&lt;&lt;abstract&gt;&gt; balanceOf(_owner: address): (balance: uint256)</text><text x="8" y="-3212.1" fill="#000" font-family="Times,serif" font-size="14" text-anchor="start">&lt;&lt;event&gt;&gt; Transfer(from: address, to: address, tokenId: uint256)</text><text x="8" y="-3195.3" fill="#000" font-family="Times,serif" font-size="14" text-anchor="start">&lt;&lt;event&gt;&gt; Approval(owner: address, approved: address, tokenId: uint256)</text></g><g id="edge3" class="edge"><title>9-&gt;2</title><path fill="none" stroke="#000" d="M412.7812,-3150.1143C401.5576,-3160.2269 390.3867,-3170.2921 379.4148,-3180.1779"/><polygon fill="#000" stroke="#000" points="376.939 -3177.698 371.853 -3186.992 381.625 -3182.898 376.939 -3177.698"/></g><g id="node2" class="node"><title>9struct0</title><polygon fill="#f2f2f2" stroke="#000" points="553.431 -2548.3 553.431 -2681.9 690.358 -2681.9 690.358 -2548.3 553.431 -2548.3"/><text x="621.894" y="-2665.3" fill="#000" font-family="Times,serif" font-size="14" text-anchor="middle">&lt;&lt;struct&gt;&gt;</text><text x="621.894" y="-2648.5" fill="#000" font-family="Times,serif" font-size="14" text-anchor="middle">Auction</text><polyline fill="none" stroke="#000" points="553.431 -2640.3 690.358 -2640.3"/><text x="561.431" y="-2623.7" fill="#000" font-family="Times,serif" font-size="14" text-anchor="start">seller: address</text><text x="561.431" y="-2606.9" fill="#000" font-family="Times,serif" font-size="14" text-anchor="start">startingPrice: uint128</text><text x="561.431" y="-2590.1" fill="#000" font-family="Times,serif" font-size="14" text-anchor="start">endingPrice: uint128</text><text x="561.431" y="-2573.3" fill="#000" font-family="Times,serif" font-size="14" text-anchor="start">duration: uint64</text><text x="561.431" y="-2556.5" fill="#000" font-family="Times,serif" font-size="14" text-anchor="start">startedAt: uint64</text></g><g id="edge1" class="edge"><title>9struct0-&gt;9</title><path fill="none" stroke="#000" d="M621.8945,-2681.928C621.8945,-2705.1649 621.8945,-2732.5715 621.8945,-2760.987"/><polygon fill="#000" stroke="#000" points="621.895 -2761.218 625.894 -2767.218 621.894 -2773.218 617.894 -2767.218 621.895 -2761.218"/></g><g id="node3" class="node"><title>1</title><polygon fill="#f2f2f2" stroke="#000" points="1023.759 -3245.9 1023.759 -3387.5 1278.03 -3387.5 1278.03 -3245.9 1023.759 -3245.9"/><text x="1150.895" y="-3370.9" fill="#000" font-family="Times,serif" font-size="14" text-anchor="middle">Ownable</text><polyline fill="none" stroke="#000" points="1023.759 -3362.7 1278.03 -3362.7"/><text x="1031.759" y="-3346.1" fill="#000" font-family="Times,serif" font-size="14" text-anchor="start">Public:</text><text x="1031.759" y="-3329.3" fill="#000" font-family="Times,serif" font-size="14" text-anchor="start">owner: address</text><polyline fill="none" stroke="#000" points="1023.759 -3321.1 1278.03 -3321.1"/><text x="1031.759" y="-3304.5" fill="#000" font-family="Times,serif" font-size="14" text-anchor="start">Public:</text><text x="1031.759" y="-3287.7" fill="#000" font-family="Times,serif" font-size="14" text-anchor="start">&lt;&lt;modifier&gt;&gt; onlyOwner()</text><text x="1031.759" y="-3270.9" fill="#000" font-family="Times,serif" font-size="14" text-anchor="start">constructor()</text><text x="1031.759" y="-3254.1" fill="#000" font-family="Times,serif" font-size="14" text-anchor="start">transferOwnership(newOwner: address)</text></g><g id="node4" class="node"><title>3</title><polygon fill="#f2f2f2" stroke="#000" points="1225.675 -1386.9 1225.675 -1511.7 1758.114 -1511.7 1758.114 -1386.9 1225.675 -1386.9"/><text x="1491.895" y="-1495.1" fill="#000" font-family="Times,serif" font-size="14" text-anchor="middle">&lt;&lt;Abstract&gt;&gt;</text><text x="1491.895" y="-1478.3" fill="#000" font-family="Times,serif" font-size="14" text-anchor="middle">GeneScienceInterface</text><polyline fill="none" stroke="#000" points="1225.675 -1470.1 1758.114 -1470.1"/><polyline fill="none" stroke="#000" points="1225.675 -1445.3 1758.114 -1445.3"/><text x="1233.675" y="-1428.7" fill="#000" font-family="Times,serif" font-size="14" text-anchor="start">Public:</text><text x="1233.675" y="-1411.9" fill="#000" font-family="Times,serif" font-size="14" text-anchor="start">&lt;&lt;abstract&gt;&gt; isGeneScience(): bool</text><text x="1233.675" y="-1395.1" fill="#000" font-family="Times,serif" font-size="14" text-anchor="start">&lt;&lt;abstract&gt;&gt; mixGenes(genes1: uint256, genes2: uint256, targetBlock: uint256): uint256</text></g><g id="node5" class="node"><title>4</title><polygon fill="#f2f2f2" stroke="#000" points="961.884 -2096.9 961.884 -2456.9 1283.905 -2456.9 1283.905 -2096.9 961.884 -2096.9"/><text x="1122.895" y="-2440.3" fill="#000" font-family="Times,serif" font-size="14" text-anchor="middle">KittyAccessControl</text><polyline fill="none" stroke="#000" points="961.884 -2432.1 1283.905 -2432.1"/><text x="969.884" y="-2415.5" fill="#000" font-family="Times,serif" font-size="14" text-anchor="start">Public:</text><text x="969.884" y="-2398.7" fill="#000" font-family="Times,serif" font-size="14" text-anchor="start">ceoAddress: address</text><text x="969.884" y="-2381.9" fill="#000" font-family="Times,serif" font-size="14" text-anchor="start">cfoAddress: address</text><text x="969.884" y="-2365.1" fill="#000" font-family="Times,serif" font-size="14" text-anchor="start">cooAddress: address</text><text x="969.884" y="-2348.3" fill="#000" font-family="Times,serif" font-size="14" text-anchor="start">paused: bool</text><polyline fill="none" stroke="#000" points="961.884 -2340.1 1283.905 -2340.1"/><text x="969.884" y="-2323.5" fill="#000" font-family="Times,serif" font-size="14" text-anchor="start">External:</text><text x="969.884" y="-2306.7" fill="#000" font-family="Times,serif" font-size="14" text-anchor="start">setCEO(_newCEO: address)</text><text x="969.884" y="-2289.9" fill="#000" font-family="Times,serif" font-size="14" text-anchor="start">setCFO(_newCFO: address)</text><text x="969.884" y="-2273.1" fill="#000" font-family="Times,serif" font-size="14" text-anchor="start">setCOO(_newCOO: address)</text><text x="969.884" y="-2256.3" fill="#000" font-family="Times,serif" font-size="14" text-anchor="start">pause()</text><text x="969.884" y="-2239.5" fill="#000" font-family="Times,serif" font-size="14" text-anchor="start">Public:</text><text x="969.884" y="-2222.7" fill="#000" font-family="Times,serif" font-size="14" text-anchor="start">&lt;&lt;event&gt;&gt; ContractUpgrade(newContract: address)</text><text x="969.884" y="-2205.9" fill="#000" font-family="Times,serif" font-size="14" text-anchor="start">&lt;&lt;modifier&gt;&gt; onlyCEO()</text><text x="969.884" y="-2189.1" fill="#000" font-family="Times,serif" font-size="14" text-anchor="start">&lt;&lt;modifier&gt;&gt; onlyCFO()</text><text x="969.884" y="-2172.3" fill="#000" font-family="Times,serif" font-size="14" text-anchor="start">&lt;&lt;modifier&gt;&gt; onlyCOO()</text><text x="969.884" y="-2155.5" fill="#000" font-family="Times,serif" font-size="14" text-anchor="start">&lt;&lt;modifier&gt;&gt; onlyCLevel()</text><text x="969.884" y="-2138.7" fill="#000" font-family="Times,serif" font-size="14" text-anchor="start">&lt;&lt;modifier&gt;&gt; whenNotPaused()</text><text x="969.884" y="-2121.9" fill="#000" font-family="Times,serif" font-size="14" text-anchor="start">&lt;&lt;modifier&gt;&gt; whenPaused()</text><text x="969.884" y="-2105.1" fill="#000" font-family="Times,serif" font-size="14" text-anchor="start">unpause()</text></g><g id="node6" class="node"><title>5</title><polygon fill="#f2f2f2" stroke="#000" points="792.961 -1716.7 792.961 -2059.9 1452.828 -2059.9 1452.828 -1716.7 792.961 -1716.7"/><text x="1122.895" y="-2043.3" fill="#000" font-family="Times,serif" font-size="14" text-anchor="middle">KittyBase</text><polyline fill="none" stroke="#000" points="792.961 -2035.1 1452.828 -2035.1"/><text x="800.961" y="-2018.5" fill="#000" font-family="Times,serif" font-size="14" text-anchor="start">Public:</text><text x="800.961" y="-2001.7" fill="#000" font-family="Times,serif" font-size="14" text-anchor="start">cooldowns: uint32[]</text><text x="800.961" y="-1984.9" fill="#000" font-family="Times,serif" font-size="14" text-anchor="start">secondsPerBlock: uint256</text><text x="800.961" y="-1968.1" fill="#000" font-family="Times,serif" font-size="14" text-anchor="start">kitties: Kitty[]</text><text x="800.961" y="-1951.3" fill="#000" font-family="Times,serif" font-size="14" text-anchor="start">kittyIndexToOwner: mapping(uint256=&gt;address)</text><text x="800.961" y="-1934.5" fill="#000" font-family="Times,serif" font-size="14" text-anchor="start">ownershipTokenCount: mapping(address=&gt;uint256)</text><text x="800.961" y="-1917.7" fill="#000" font-family="Times,serif" font-size="14" text-anchor="start">kittyIndexToApproved: mapping(uint256=&gt;address)</text><text x="800.961" y="-1900.9" fill="#000" font-family="Times,serif" font-size="14" text-anchor="start">sireAllowedToAddress: mapping(uint256=&gt;address)</text><text x="800.961" y="-1884.1" fill="#000" font-family="Times,serif" font-size="14" text-anchor="start">saleAuction: SaleClockAuction</text><text x="800.961" y="-1867.3" fill="#000" font-family="Times,serif" font-size="14" text-anchor="start">siringAuction: SiringClockAuction</text><polyline fill="none" stroke="#000" points="792.961 -1859.1 1452.828 -1859.1"/><text x="800.961" y="-1842.5" fill="#000" font-family="Times,serif" font-size="14" text-anchor="start">Internal:</text><text x="800.961" y="-1825.7" fill="#000" font-family="Times,serif" font-size="14" text-anchor="start">_transfer(_from: address, _to: address, _tokenId: uint256)</text><text x="800.961" y="-1808.9" fill="#000" font-family="Times,serif" font-size="14" text-anchor="start">_createKitty(_matronId: uint256, _sireId: uint256, _generation: uint256, _genes: uint256, _owner: address): uint</text><text x="800.961" y="-1792.1" fill="#000" font-family="Times,serif" font-size="14" text-anchor="start">External:</text><text x="800.961" y="-1775.3" fill="#000" font-family="Times,serif" font-size="14" text-anchor="start">setSecondsPerBlock(secs: uint256)</text><text x="800.961" y="-1758.5" fill="#000" font-family="Times,serif" font-size="14" text-anchor="start">Public:</text><text x="800.961" y="-1741.7" fill="#000" font-family="Times,serif" font-size="14" text-anchor="start">&lt;&lt;event&gt;&gt; Birth(owner: address, kittyId: uint256, matronId: uint256, sireId: uint256, genes: uint256)</text><text x="800.961" y="-1724.9" fill="#000" font-family="Times,serif" font-size="14" text-anchor="start">&lt;&lt;event&gt;&gt; Transfer(from: address, to: address, tokenId: uint256)</text></g><g id="edge4" class="edge"><title>5-&gt;4</title><path fill="none" stroke="#000" d="M1122.8945,-2060.1597C1122.8945,-2062.3501 1122.8945,-2064.5444 1122.8945,-2066.7414"/><polygon fill="none" stroke="#000" points="1112.395 -2066.893 1122.895 -2096.893 1133.395 -2066.893 1112.395 -2066.893"/></g><g id="node14" class="node"><title>12</title><polygon fill="#f2f2f2" stroke="#000" points="1301.769 -2197.7 1301.769 -2356.1 1990.02 -2356.1 1990.02 -2197.7 1301.769 -2197.7"/><text x="1645.895" y="-2339.5" fill="#000" font-family="Times,serif" font-size="14" text-anchor="middle">SiringClockAuction</text><polyline fill="none" stroke="#000" points="1301.769 -2331.3 1990.02 -2331.3"/><text x="1309.769" y="-2314.7" fill="#000" font-family="Times,serif" font-size="14" text-anchor="start">Public:</text><text x="1309.769" y="-2297.9" fill="#000" font-family="Times,serif" font-size="14" text-anchor="start">isSiringClockAuction: bool</text><polyline fill="none" stroke="#000" points="1301.769 -2289.7 1990.02 -2289.7"/><text x="1309.769" y="-2273.1" fill="#000" font-family="Times,serif" font-size="14" text-anchor="start">External:</text><text x="1309.769" y="-2256.3" fill="#000" font-family="Times,serif" font-size="14" text-anchor="start">&lt;&lt;payable&gt;&gt; bid(_tokenId: uint256)</text><text x="1309.769" y="-2239.5" fill="#000" font-family="Times,serif" font-size="14" text-anchor="start">createAuction(_tokenId: uint256, _startingPrice: uint256, _endingPrice: uint256, _duration: uint256, _seller: address)</text><text x="1309.769" y="-2222.7" fill="#000" font-family="Times,serif" font-size="14" text-anchor="start">Public:</text><text x="1309.769" y="-2205.9" fill="#000" font-family="Times,serif" font-size="14" text-anchor="start">constructor(_nftAddr: address, _cut: uint256)</text></g><g id="edge6" class="edge"><title>5-&gt;12</title><path fill="none" stroke="#000" d="M1354.1931,-2060.1597C1415.4469,-2105.6726 1478.9411,-2152.8501 1530.9893,-2191.523"/><polygon fill="#000" stroke="#000" points="1529.128 -2194.501 1539.242 -2197.655 1533.303 -2188.882 1529.128 -2194.501"/></g><g id="node15" class="node"><title>13</title><polygon fill="#f2f2f2" stroke="#000" points="255.769 -2172.5 255.769 -2381.3 944.02 -2381.3 944.02 -2172.5 255.769 -2172.5"/><text x="599.894" y="-2364.7" fill="#000" font-family="Times,serif" font-size="14" text-anchor="middle">SaleClockAuction</text><polyline fill="none" stroke="#000" points="255.769 -2356.5 944.02 -2356.5"/><text x="263.769" y="-2339.9" fill="#000" font-family="Times,serif" font-size="14" text-anchor="start">Public:</text><text x="263.769" y="-2323.1" fill="#000" font-family="Times,serif" font-size="14" text-anchor="start">isSaleClockAuction: bool</text><text x="263.769" y="-2306.3" fill="#000" font-family="Times,serif" font-size="14" text-anchor="start">gen0SaleCount: uint256</text><text x="263.769" y="-2289.5" fill="#000" font-family="Times,serif" font-size="14" text-anchor="start">lastGen0SalePrices: uint256[]</text><polyline fill="none" stroke="#000" points="255.769 -2281.3 944.02 -2281.3"/><text x="263.769" y="-2264.7" fill="#000" font-family="Times,serif" font-size="14" text-anchor="start">External:</text><text x="263.769" y="-2247.9" fill="#000" font-family="Times,serif" font-size="14" text-anchor="start">&lt;&lt;payable&gt;&gt; bid(_tokenId: uint256)</text><text x="263.769" y="-2231.1" fill="#000" font-family="Times,serif" font-size="14" text-anchor="start">createAuction(_tokenId: uint256, _startingPrice: uint256, _endingPrice: uint256, _duration: uint256, _seller: address)</text><text x="263.769" y="-2214.3" fill="#000" font-family="Times,serif" font-size="14" text-anchor="start">averageGen0SalePrice(): uint256</text><text x="263.769" y="-2197.5" fill="#000" font-family="Times,serif" font-size="14" text-anchor="start">Public:</text><text x="263.769" y="-2180.7" fill="#000" font-family="Times,serif" font-size="14" text-anchor="start">constructor(_nftAddr: address, _cut: uint256)</text></g><g id="edge5" class="edge"><title>5-&gt;13</title><path fill="none" stroke="#000" d="M891.5959,-2060.1597C843.2021,-2096.1173 793.4099,-2133.114 748.9686,-2166.1348"/><polygon fill="#000" stroke="#000" points="746.674 -2163.48 740.734 -2172.253 750.848 -2169.098 746.674 -2163.48"/></g><g id="node7" class="node"><title>5struct0</title><polygon fill="#f2f2f2" stroke="#000" points="1037.706 -1357.3 1037.706 -1541.3 1208.083 -1541.3 1208.083 -1357.3 1037.706 -1357.3"/><text x="1122.895" y="-1524.7" fill="#000" font-family="Times,serif" font-size="14" text-anchor="middle">&lt;&lt;struct&gt;&gt;</text><text x="1122.895" y="-1507.9" fill="#000" font-family="Times,serif" font-size="14" text-anchor="middle">Kitty</text><polyline fill="none" stroke="#000" points="1037.706 -1499.7 1208.083 -1499.7"/><text x="1045.706" y="-1483.1" fill="#000" font-family="Times,serif" font-size="14" text-anchor="start">genes: uint256</text><text x="1045.706" y="-1466.3" fill="#000" font-family="Times,serif" font-size="14" text-anchor="start">birthTime: uint64</text><text x="1045.706" y="-1449.5" fill="#000" font-family="Times,serif" font-size="14" text-anchor="start">cooldownEndBlock: uint64</text><text x="1045.706" y="-1432.7" fill="#000" font-family="Times,serif" font-size="14" text-anchor="start">matronId: uint32</text><text x="1045.706" y="-1415.9" fill="#000" font-family="Times,serif" font-size="14" text-anchor="start">sireId: uint32</text><text x="1045.706" y="-1399.1" fill="#000" font-family="Times,serif" font-size="14" text-anchor="start">siringWithId: uint32</text><text x="1045.706" y="-1382.3" fill="#000" font-family="Times,serif" font-size="14" text-anchor="start">cooldownIndex: uint16</text><text x="1045.706" y="-1365.5" fill="#000" font-family="Times,serif" font-size="14" text-anchor="start">generation: uint16</text></g><g id="edge2" class="edge"><title>5struct0-&gt;5</title><path fill="none" stroke="#000" d="M1122.8945,-1541.3288C1122.8945,-1588.6445 1122.8945,-1648.0537 1122.8945,-1704.2737"/><polygon fill="#000" stroke="#000" points="1122.895 -1704.592 1126.895 -1710.592 1122.895 -1716.592 1118.895 -1710.592 1122.895 -1704.592"/></g><g id="node8" class="node"><title>6</title><polygon fill="#f2f2f2" stroke="#000" points="328.504 -1842.7 328.504 -1933.9 775.285 -1933.9 775.285 -1842.7 328.504 -1842.7"/><text x="551.894" y="-1917.3" fill="#000" font-family="Times,serif" font-size="14" text-anchor="middle">ERC721Metadata</text><polyline fill="none" stroke="#000" points="328.504 -1909.1 775.285 -1909.1"/><polyline fill="none" stroke="#000" points="328.504 -1884.3 775.285 -1884.3"/><text x="336.504" y="-1867.7" fill="#000" font-family="Times,serif" font-size="14" text-anchor="start">Public:</text><text x="336.504" y="-1850.9" fill="#000" font-family="Times,serif" font-size="14" text-anchor="start">getMetadata(_tokenId: uint256, string): (buffer: bytes32[], count: uint256)</text></g><g id="node9" class="node"><title>7</title><polygon fill="#f2f2f2" stroke="#000" points="540.578 -1218.9 540.578 -1679.7 1019.211 -1679.7 1019.211 -1218.9 540.578 -1218.9"/><text x="779.894" y="-1663.1" fill="#000" font-family="Times,serif" font-size="14" text-anchor="middle">KittyOwnership</text><polyline fill="none" stroke="#000" points="540.578 -1654.9 1019.211 -1654.9"/><text x="548.578" y="-1638.3" fill="#000" font-family="Times,serif" font-size="14" text-anchor="start">Public:</text><text x="548.578" y="-1621.5" fill="#000" font-family="Times,serif" font-size="14" text-anchor="start">name: string</text><text x="548.578" y="-1604.7" fill="#000" font-family="Times,serif" font-size="14" text-anchor="start">symbol: string</text><text x="548.578" y="-1587.9" fill="#000" font-family="Times,serif" font-size="14" text-anchor="start">erc721Metadata: ERC721Metadata</text><text x="548.578" y="-1571.1" fill="#000" font-family="Times,serif" font-size="14" text-anchor="start">InterfaceSignature_ERC165: bytes4</text><text x="548.578" y="-1554.3" fill="#000" font-family="Times,serif" font-size="14" text-anchor="start">InterfaceSignature_ERC721: bytes4</text><polyline fill="none" stroke="#000" points="540.578 -1546.1 1019.211 -1546.1"/><text x="548.578" y="-1529.5" fill="#000" font-family="Times,serif" font-size="14" text-anchor="start">Private:</text><text x="548.578" y="-1512.7" fill="#000" font-family="Times,serif" font-size="14" text-anchor="start">_memcpy(_dest: uint, _src: uint, _len: uint)</text><text x="548.578" y="-1495.9" fill="#000" font-family="Times,serif" font-size="14" text-anchor="start">_toString(_rawBytes: bytes32[], _stringLength: uint256): string</text><text x="548.578" y="-1479.1" fill="#000" font-family="Times,serif" font-size="14" text-anchor="start">Internal:</text><text x="548.578" y="-1462.3" fill="#000" font-family="Times,serif" font-size="14" text-anchor="start">_owns(_claimant: address, _tokenId: uint256): bool</text><text x="548.578" y="-1445.5" fill="#000" font-family="Times,serif" font-size="14" text-anchor="start">_approvedFor(_claimant: address, _tokenId: uint256): bool</text><text x="548.578" y="-1428.7" fill="#000" font-family="Times,serif" font-size="14" text-anchor="start">_approve(_tokenId: uint256, _approved: address)</text><text x="548.578" y="-1411.9" fill="#000" font-family="Times,serif" font-size="14" text-anchor="start">External:</text><text x="548.578" y="-1395.1" fill="#000" font-family="Times,serif" font-size="14" text-anchor="start">supportsInterface(_interfaceID: bytes4): bool</text><text x="548.578" y="-1378.3" fill="#000" font-family="Times,serif" font-size="14" text-anchor="start">transfer(_to: address, _tokenId: uint256)</text><text x="548.578" y="-1361.5" fill="#000" font-family="Times,serif" font-size="14" text-anchor="start">approve(_to: address, _tokenId: uint256)</text><text x="548.578" y="-1344.7" fill="#000" font-family="Times,serif" font-size="14" text-anchor="start">transferFrom(_from: address, _to: address, _tokenId: uint256)</text><text x="548.578" y="-1327.9" fill="#000" font-family="Times,serif" font-size="14" text-anchor="start">ownerOf(_tokenId: uint256): (owner: address)</text><text x="548.578" y="-1311.1" fill="#000" font-family="Times,serif" font-size="14" text-anchor="start">tokensOfOwner(_owner: address): (ownerTokens: uint256[])</text><text x="548.578" y="-1294.3" fill="#000" font-family="Times,serif" font-size="14" text-anchor="start">tokenMetadata(_tokenId: uint256, _preferredTransport: string): (infoUrl: string)</text><text x="548.578" y="-1277.5" fill="#000" font-family="Times,serif" font-size="14" text-anchor="start">Public:</text><text x="548.578" y="-1260.7" fill="#000" font-family="Times,serif" font-size="14" text-anchor="start">setMetadataAddress(_contractAddress: address)</text><text x="548.578" y="-1243.9" fill="#000" font-family="Times,serif" font-size="14" text-anchor="start">balanceOf(_owner: address): (count: uint256)</text><text x="548.578" y="-1227.1" fill="#000" font-family="Times,serif" font-size="14" text-anchor="start">totalSupply(): uint</text></g><g id="edge7" class="edge"><title>7-&gt;5</title><path fill="none" stroke="#000" d="M959.9329,-1679.7281C963.3446,-1684.0947 966.7518,-1688.4556 970.1491,-1692.8037"/><polygon fill="none" stroke="#000" points="962.067 -1699.515 988.812 -1716.69 978.615 -1686.585 962.067 -1699.515"/></g><g id="edge9" class="edge"><title>7-&gt;6</title><path fill="none" stroke="#000" d="M660.2189,-1679.7281C630.2958,-1737.3431 600.8955,-1793.9517 580.2917,-1833.623"/><polygon fill="#000" stroke="#000" points="577.144 -1832.09 575.641 -1842.578 583.356 -1835.316 577.144 -1832.09"/></g><g id="edge8" class="edge"><title>7-&gt;2</title><path fill="none" stroke="#000" d="M540.5662,-1539.1751C458.9257,-1581.1544 374.5467,-1639.2197 319.8945,-1716.2 173.7049,-1922.1154 227.8945,-2024.3677 227.8945,-2276.9 227.8945,-2276.9 227.8945,-2276.9 227.8945,-2615.1 227.8945,-2801.0637 227.8945,-3014.7536 227.8945,-3156.9581"/><polygon fill="none" stroke="#000" points="217.395 -3157.067 227.894 -3187.067 238.395 -3157.067 217.395 -3157.067"/></g><g id="node10" class="node"><title>8</title><polygon fill="#f2f2f2" stroke="#000" points="477.523 -737.9 477.523 -1181.9 1082.266 -1181.9 1082.266 -737.9 477.523 -737.9"/><text x="779.894" y="-1165.3" fill="#000" font-family="Times,serif" font-size="14" text-anchor="middle">KittyBreeding</text><polyline fill="none" stroke="#000" points="477.523 -1157.1 1082.266 -1157.1"/><text x="485.523" y="-1140.5" fill="#000" font-family="Times,serif" font-size="14" text-anchor="start">Public:</text><text x="485.523" y="-1123.7" fill="#000" font-family="Times,serif" font-size="14" text-anchor="start">autoBirthFee: uint256</text><text x="485.523" y="-1106.9" fill="#000" font-family="Times,serif" font-size="14" text-anchor="start">pregnantKitties: uint256</text><text x="485.523" y="-1090.1" fill="#000" font-family="Times,serif" font-size="14" text-anchor="start">geneScience: GeneScienceInterface</text><polyline fill="none" stroke="#000" points="477.523 -1081.9 1082.266 -1081.9"/><text x="485.523" y="-1065.3" fill="#000" font-family="Times,serif" font-size="14" text-anchor="start">Private:</text><text x="485.523" y="-1048.5" fill="#000" font-family="Times,serif" font-size="14" text-anchor="start">_isReadyToGiveBirth(_matron: Kitty): bool</text><text x="485.523" y="-1031.7" fill="#000" font-family="Times,serif" font-size="14" text-anchor="start">_isValidMatingPair(_matron: Kitty, _matronId: uint256, _sire: Kitty, _sireId: uint256): bool</text><text x="485.523" y="-1014.9" fill="#000" font-family="Times,serif" font-size="14" text-anchor="start">Internal:</text><text x="485.523" y="-998.1" fill="#000" font-family="Times,serif" font-size="14" text-anchor="start">_isReadyToBreed(_kit: Kitty): bool</text><text x="485.523" y="-981.3" fill="#000" font-family="Times,serif" font-size="14" text-anchor="start">_isSiringPermitted(_sireId: uint256, _matronId: uint256): bool</text><text x="485.523" y="-964.5" fill="#000" font-family="Times,serif" font-size="14" text-anchor="start">_triggerCooldown(_kitten: Kitty)</text><text x="485.523" y="-947.7" fill="#000" font-family="Times,serif" font-size="14" text-anchor="start">_canBreedWithViaAuction(_matronId: uint256, _sireId: uint256): bool</text><text x="485.523" y="-930.9" fill="#000" font-family="Times,serif" font-size="14" text-anchor="start">_breedWith(_matronId: uint256, _sireId: uint256)</text><text x="485.523" y="-914.1" fill="#000" font-family="Times,serif" font-size="14" text-anchor="start">External:</text><text x="485.523" y="-897.3" fill="#000" font-family="Times,serif" font-size="14" text-anchor="start">&lt;&lt;payable&gt;&gt; breedWithAuto(_matronId: uint256, _sireId: uint256)</text><text x="485.523" y="-880.5" fill="#000" font-family="Times,serif" font-size="14" text-anchor="start">setGeneScienceAddress(_address: address)</text><text x="485.523" y="-863.7" fill="#000" font-family="Times,serif" font-size="14" text-anchor="start">approveSiring(_addr: address, _sireId: uint256)</text><text x="485.523" y="-846.9" fill="#000" font-family="Times,serif" font-size="14" text-anchor="start">setAutoBirthFee(val: uint256)</text><text x="485.523" y="-830.1" fill="#000" font-family="Times,serif" font-size="14" text-anchor="start">canBreedWith(_matronId: uint256, _sireId: uint256): bool</text><text x="485.523" y="-813.3" fill="#000" font-family="Times,serif" font-size="14" text-anchor="start">giveBirth(_matronId: uint256): uint256</text><text x="485.523" y="-796.5" fill="#000" font-family="Times,serif" font-size="14" text-anchor="start">Public:</text><text x="485.523" y="-779.7" fill="#000" font-family="Times,serif" font-size="14" text-anchor="start">&lt;&lt;event&gt;&gt; Pregnant(owner: address, matronId: uint256, sireId: uint256, cooldownEndBlock: uint256)</text><text x="485.523" y="-762.9" fill="#000" font-family="Times,serif" font-size="14" text-anchor="start">isReadyToBreed(_kittyId: uint256): bool</text><text x="485.523" y="-746.1" fill="#000" font-family="Times,serif" font-size="14" text-anchor="start">isPregnant(_kittyId: uint256): bool</text></g><g id="edge11" class="edge"><title>8-&gt;3</title><path fill="none" stroke="#000" d="M1082.2736,-1129.9524C1128.1716,-1158.2761 1174.3658,-1188.2747 1216.8945,-1218.4 1287.4423,-1268.3726 1362.2571,-1331.9626 1416.013,-1379.7515"/><polygon fill="#000" stroke="#000" points="1413.995 -1382.641 1423.788 -1386.684 1418.654 -1377.417 1413.995 -1382.641"/></g><g id="edge10" class="edge"><title>8-&gt;7</title><path fill="none" stroke="#000" d="M779.8945,-1182.0463C779.8945,-1184.1311 779.8945,-1186.2182 779.8945,-1188.3068"/><polygon fill="none" stroke="#000" points="769.395 -1188.539 779.894 -1218.539 790.395 -1188.539 769.395 -1188.539"/></g><g id="node12" class="node"><title>10</title><polygon fill="#f2f2f2" stroke="#000" points="1044.103 -2865.7 1044.103 -3057.7 1257.686 -3057.7 1257.686 -2865.7 1044.103 -2865.7"/><text x="1150.895" y="-3041.1" fill="#000" font-family="Times,serif" font-size="14" text-anchor="middle">Pausable</text><polyline fill="none" stroke="#000" points="1044.103 -3032.9 1257.686 -3032.9"/><text x="1052.103" y="-3016.3" fill="#000" font-family="Times,serif" font-size="14" text-anchor="start">Public:</text><text x="1052.103" y="-2999.5" fill="#000" font-family="Times,serif" font-size="14" text-anchor="start">paused: bool</text><polyline fill="none" stroke="#000" points="1044.103 -2991.3 1257.686 -2991.3"/><text x="1052.103" y="-2974.7" fill="#000" font-family="Times,serif" font-size="14" text-anchor="start">Public:</text><text x="1052.103" y="-2957.9" fill="#000" font-family="Times,serif" font-size="14" text-anchor="start">&lt;&lt;event&gt;&gt; Pause()</text><text x="1052.103" y="-2941.1" fill="#000" font-family="Times,serif" font-size="14" text-anchor="start">&lt;&lt;event&gt;&gt; Unpause()</text><text x="1052.103" y="-2924.3" fill="#000" font-family="Times,serif" font-size="14" text-anchor="start">&lt;&lt;modifier&gt;&gt; whenNotPaused()</text><text x="1052.103" y="-2907.5" fill="#000" font-family="Times,serif" font-size="14" text-anchor="start">&lt;&lt;modifier&gt;&gt; whenPaused()</text><text x="1052.103" y="-2890.7" fill="#000" font-family="Times,serif" font-size="14" text-anchor="start">pause(): bool</text><text x="1052.103" y="-2873.9" fill="#000" font-family="Times,serif" font-size="14" text-anchor="start">unpause(): bool</text></g><g id="edge12" class="edge"><title>10-&gt;1</title><path fill="none" stroke="#000" d="M1150.8945,-3057.7681C1150.8945,-3106.5956 1150.8945,-3165.9193 1150.8945,-3215.4579"/><polygon fill="none" stroke="#000" points="1140.395 -3215.621 1150.895 -3245.621 1161.395 -3215.621 1140.395 -3215.621"/></g><g id="node13" class="node"><title>11</title><polygon fill="#f2f2f2" stroke="#000" points="708.823 -2493.9 708.823 -2736.3 1470.966 -2736.3 1470.966 -2493.9 708.823 -2493.9"/><text x="1089.895" y="-2719.7" fill="#000" font-family="Times,serif" font-size="14" text-anchor="middle">ClockAuction</text><polyline fill="none" stroke="#000" points="708.823 -2711.5 1470.966 -2711.5"/><text x="716.823" y="-2694.9" fill="#000" font-family="Times,serif" font-size="14" text-anchor="start">Public:</text><text x="716.823" y="-2678.1" fill="#000" font-family="Times,serif" font-size="14" text-anchor="start">InterfaceSignature_ERC721: bytes4</text><polyline fill="none" stroke="#000" points="708.823 -2669.9 1470.966 -2669.9"/><text x="716.823" y="-2653.3" fill="#000" font-family="Times,serif" font-size="14" text-anchor="start">External:</text><text x="716.823" y="-2636.5" fill="#000" font-family="Times,serif" font-size="14" text-anchor="start">&lt;&lt;payable&gt;&gt; bid(_tokenId: uint256)</text><text x="716.823" y="-2619.7" fill="#000" font-family="Times,serif" font-size="14" text-anchor="start">withdrawBalance()</text><text x="716.823" y="-2602.9" fill="#000" font-family="Times,serif" font-size="14" text-anchor="start">createAuction(_tokenId: uint256, _startingPrice: uint256, _endingPrice: uint256, _duration: uint256, _seller: address)</text><text x="716.823" y="-2586.1" fill="#000" font-family="Times,serif" font-size="14" text-anchor="start">cancelAuction(_tokenId: uint256)</text><text x="716.823" y="-2569.3" fill="#000" font-family="Times,serif" font-size="14" text-anchor="start">cancelAuctionWhenPaused(_tokenId: uint256)</text><text x="716.823" y="-2552.5" fill="#000" font-family="Times,serif" font-size="14" text-anchor="start">getAuction(_tokenId: uint256): (seller: address, startingPrice: uint256, endingPrice: uint256, duration: uint256, startedAt: uint256)</text><text x="716.823" y="-2535.7" fill="#000" font-family="Times,serif" font-size="14" text-anchor="start">getCurrentPrice(_tokenId: uint256): uint256</text><text x="716.823" y="-2518.9" fill="#000" font-family="Times,serif" font-size="14" text-anchor="start">Public:</text><text x="716.823" y="-2502.1" fill="#000" font-family="Times,serif" font-size="14" text-anchor="start">constructor(_nftAddress: address, _cut: uint256)</text></g><g id="edge14" class="edge"><title>11-&gt;9</title><path fill="none" stroke="#000" d="M926.2108,-2736.3239C917.8522,-2742.5143 909.3615,-2748.8024 900.7874,-2755.1524"/><polygon fill="none" stroke="#000" points="894.302 -2746.89 876.443 -2773.182 906.8 -2763.765 894.302 -2746.89"/></g><g id="edge15" class="edge"><title>11-&gt;2</title><path fill="none" stroke="#000" stroke-dasharray="5 2" d="M1044.3693,-2736.5322C1040.7766,-2748.6763 1037.5273,-2760.9098 1034.8945,-2772.8 1016.6527,-2855.1837 1053.1114,-3087.6754 996.8945,-3150.6 927.1495,-3228.6668 665.2144,-3272.7969 466.2537,-3295.6418"/><polygon fill="#000" stroke="#000" points="465.773 -3292.174 456.232 -3296.781 466.564 -3299.129 465.773 -3292.174"/></g><g id="edge13" class="edge"><title>11-&gt;10</title><path fill="none" stroke="#000" d="M1111.2293,-2736.3239C1116.9083,-2768.5913 1123.0545,-2803.5141 1128.7745,-2836.0147"/><polygon fill="none" stroke="#000" points="1118.449 -2837.923 1133.99 -2865.649 1139.131 -2834.283 1118.449 -2837.923"/></g><g id="edge16" class="edge"><title>12-&gt;11</title><path fill="none" stroke="#000" d="M1515.5372,-2356.1929C1455.8401,-2392.505 1383.3473,-2436.6005 1315.2325,-2478.0329"/><polygon fill="none" stroke="#000" points="1309.551 -2469.199 1289.377 -2493.76 1320.465 -2487.14 1309.551 -2469.199"/></g><g id="edge17" class="edge"><title>13-&gt;11</title><path fill="none" stroke="#000" d="M751.2433,-2381.3616C794.8716,-2411.474 843.1641,-2444.8056 889.2852,-2476.6386"/><polygon fill="none" stroke="#000" points="883.616 -2485.484 914.271 -2493.884 895.545 -2468.201 883.616 -2485.484"/></g><g id="node16" class="node"><title>14</title><polygon fill="#f2f2f2" stroke="#000" points="468.216 -525.7 468.216 -700.9 1091.573 -700.9 1091.573 -525.7 468.216 -525.7"/><text x="779.894" y="-684.3" fill="#000" font-family="Times,serif" font-size="14" text-anchor="middle">KittyAuction</text><polyline fill="none" stroke="#000" points="468.216 -676.1 1091.573 -676.1"/><polyline fill="none" stroke="#000" points="468.216 -651.3 1091.573 -651.3"/><text x="476.216" y="-634.7" fill="#000" font-family="Times,serif" font-size="14" text-anchor="start">External:</text><text x="476.216" y="-617.9" fill="#000" font-family="Times,serif" font-size="14" text-anchor="start">&lt;&lt;payable&gt;&gt; bidOnSiringAuction(_sireId: uint256, _matronId: uint256)</text><text x="476.216" y="-601.1" fill="#000" font-family="Times,serif" font-size="14" text-anchor="start">setSaleAuctionAddress(_address: address)</text><text x="476.216" y="-584.3" fill="#000" font-family="Times,serif" font-size="14" text-anchor="start">setSiringAuctionAddress(_address: address)</text><text x="476.216" y="-567.5" fill="#000" font-family="Times,serif" font-size="14" text-anchor="start">createSaleAuction(_kittyId: uint256, _startingPrice: uint256, _endingPrice: uint256, _duration: uint256)</text><text x="476.216" y="-550.7" fill="#000" font-family="Times,serif" font-size="14" text-anchor="start">createSiringAuction(_kittyId: uint256, _startingPrice: uint256, _endingPrice: uint256, _duration: uint256)</text><text x="476.216" y="-533.9" fill="#000" font-family="Times,serif" font-size="14" text-anchor="start">withdrawAuctionBalances()</text></g><g id="edge18" class="edge"><title>14-&gt;8</title><path fill="none" stroke="#000" d="M779.8945,-701.2099C779.8945,-703.3909 779.8945,-705.596 779.8945,-707.8231"/><polygon fill="none" stroke="#000" points="769.395 -707.855 779.894 -737.855 790.395 -707.855 769.395 -707.855"/></g><g id="edge20" class="edge"><title>14-&gt;12</title><path fill="none" stroke="#000" stroke-dasharray="5 2" d="M1076.6312,-700.9091C1313.8505,-788.8949 1628.7519,-950.5627 1766.8945,-1218.4 1934.5892,-1543.5345 1770.935,-1998.1028 1687.8341,-2188.0263"/><polygon fill="#000" stroke="#000" points="1684.526 -2186.854 1683.696 -2197.417 1690.931 -2189.677 1684.526 -2186.854"/></g><g id="edge19" class="edge"><title>14-&gt;13</title><path fill="none" stroke="#000" stroke-dasharray="5 2" d="M505.719,-701.0245C492.104,-711.7838 479.649,-723.8559 468.8945,-737.4 195.2623,-1082.0087 353.1003,-1277.4209 319.8945,-1716.2 308.3505,-1868.7416 252.4878,-1923.0736 319.8945,-2060.4 339.8433,-2101.0412 371.5021,-2136.222 406.4781,-2165.719"/><polygon fill="#000" stroke="#000" points="404.527 -2168.647 414.467 -2172.314 408.983 -2163.249 404.527 -2168.647"/></g><g id="node17" class="node"><title>15</title><polygon fill="#f2f2f2" stroke="#000" points="616.774 -246.3 616.774 -488.7 943.014 -488.7 943.014 -246.3 616.774 -246.3"/><text x="779.894" y="-472.1" fill="#000" font-family="Times,serif" font-size="14" text-anchor="middle">KittyMinting</text><polyline fill="none" stroke="#000" points="616.774 -463.9 943.014 -463.9"/><text x="624.774" y="-447.3" fill="#000" font-family="Times,serif" font-size="14" text-anchor="start">Public:</text><text x="624.774" y="-430.5" fill="#000" font-family="Times,serif" font-size="14" text-anchor="start">PROMO_CREATION_LIMIT: uint256</text><text x="624.774" y="-413.7" fill="#000" font-family="Times,serif" font-size="14" text-anchor="start">GEN0_CREATION_LIMIT: uint256</text><text x="624.774" y="-396.9" fill="#000" font-family="Times,serif" font-size="14" text-anchor="start">GEN0_STARTING_PRICE: uint256</text><text x="624.774" y="-380.1" fill="#000" font-family="Times,serif" font-size="14" text-anchor="start">GEN0_AUCTION_DURATION: uint256</text><text x="624.774" y="-363.3" fill="#000" font-family="Times,serif" font-size="14" text-anchor="start">promoCreatedCount: uint256</text><text x="624.774" y="-346.5" fill="#000" font-family="Times,serif" font-size="14" text-anchor="start">gen0CreatedCount: uint256</text><polyline fill="none" stroke="#000" points="616.774 -338.3 943.014 -338.3"/><text x="624.774" y="-321.7" fill="#000" font-family="Times,serif" font-size="14" text-anchor="start">Internal:</text><text x="624.774" y="-304.9" fill="#000" font-family="Times,serif" font-size="14" text-anchor="start">_computeNextGen0Price(): uint256</text><text x="624.774" y="-288.1" fill="#000" font-family="Times,serif" font-size="14" text-anchor="start">External:</text><text x="624.774" y="-271.3" fill="#000" font-family="Times,serif" font-size="14" text-anchor="start">createPromoKitty(_genes: uint256, _owner: address)</text><text x="624.774" y="-254.5" fill="#000" font-family="Times,serif" font-size="14" text-anchor="start">createGen0Auction(_genes: uint256)</text></g><g id="edge21" class="edge"><title>15-&gt;14</title><path fill="none" stroke="#000" d="M779.8945,-488.9598C779.8945,-491.0802 779.8945,-493.2012 779.8945,-495.3202"/><polygon fill="none" stroke="#000" points="769.395 -495.531 779.894 -525.531 790.395 -495.531 769.395 -495.531"/></g><g id="node18" class="node"><title>16</title><polygon fill="#f2f2f2" stroke="#000" points="143.906 -.5 143.906 -209.3 1415.883 -209.3 1415.883 -.5 143.906 -.5"/><text x="779.894" y="-192.7" fill="#000" font-family="Times,serif" font-size="14" text-anchor="middle">KittyCore</text><polyline fill="none" stroke="#000" points="143.906 -184.5 1415.883 -184.5"/><text x="151.906" y="-167.9" fill="#000" font-family="Times,serif" font-size="14" text-anchor="start">Public:</text><text x="151.906" y="-151.1" fill="#000" font-family="Times,serif" font-size="14" text-anchor="start">newContractAddress: address</text><polyline fill="none" stroke="#000" points="143.906 -142.9 1415.883 -142.9"/><text x="151.906" y="-126.3" fill="#000" font-family="Times,serif" font-size="14" text-anchor="start">External:</text><text x="151.906" y="-109.5" fill="#000" font-family="Times,serif" font-size="14" text-anchor="start">setNewAddress(_v2Address: address)</text><text x="151.906" y="-92.7" fill="#000" font-family="Times,serif" font-size="14" text-anchor="start">getKitty(_id: uint256): (isGestating: bool, isReady: bool, cooldownIndex: uint256, nextActionAt: uint256, siringWithId: uint256, birthTime: uint256, matronId: uint256, sireId: uint256, generation: uint256, genes: uint256)</text><text x="151.906" y="-75.9" fill="#000" font-family="Times,serif" font-size="14" text-anchor="start">withdrawBalance()</text><text x="151.906" y="-59.1" fill="#000" font-family="Times,serif" font-size="14" text-anchor="start">Public:</text><text x="151.906" y="-42.3" fill="#000" font-family="Times,serif" font-size="14" text-anchor="start">&lt;&lt;fallback&gt;&gt; ()</text><text x="151.906" y="-25.5" fill="#000" font-family="Times,serif" font-size="14" text-anchor="start">constructor()</text><text x="151.906" y="-8.7" fill="#000" font-family="Times,serif" font-size="14" text-anchor="start">unpause()</text></g><g id="edge22" class="edge"><title>16-&gt;15</title><path fill="none" stroke="#000" d="M779.8945,-209.441C779.8945,-211.5999 779.8945,-213.7688 779.8945,-215.9453"/><polygon fill="none" stroke="#000" points="769.395 -215.995 779.894 -245.995 790.395 -215.995 769.395 -215.995"/></g></g></svg>