<svg xmlns="http://www.w3.org/2000/svg" xmlns:xlink="http://www.w3.org/1999/xlink" width="2236" height="1090pt" viewBox="0 0 1677.39 1089.6"><g id="graph0" class="graph" transform="scale(1 1) rotate(0) translate(4 1085.6)"><title>UmlClassDiagram</title><polygon fill="#fff" stroke="transparent" points="-4 4 -4 -1085.6 1673.39 -1085.6 1673.39 4 -4 4"/><g id="node1" class="node"><title>1</title><polygon fill="#f2f2f2" stroke="#000" points="888.615 -441.7 888.615 -801.7 1323.714 -801.7 1323.714 -441.7 888.615 -441.7"/><text x="1106.165" y="-785.1" fill="#000" font-family="Times,serif" font-size="14" text-anchor="middle">ERC20</text><polyline fill="none" stroke="#000" points="888.615 -776.9 1323.714 -776.9"/><text x="896.615" y="-760.3" fill="#000" font-family="Times,serif" font-size="14" text-anchor="start">Private:</text><text x="896.615" y="-743.5" fill="#000" font-family="Times,serif" font-size="14" text-anchor="start">_balances: mapping(address=&gt;uint256)</text><text x="896.615" y="-726.7" fill="#000" font-family="Times,serif" font-size="14" text-anchor="start">_allowances: mapping(address=&gt;mapping(address=&gt;uint256))</text><text x="896.615" y="-709.9" fill="#000" font-family="Times,serif" font-size="14" text-anchor="start">_totalSupply: uint256</text><polyline fill="none" stroke="#000" points="888.615 -701.7 1323.714 -701.7"/><text x="896.615" y="-685.1" fill="#000" font-family="Times,serif" font-size="14" text-anchor="start">Internal:</text><text x="896.615" y="-668.3" fill="#000" font-family="Times,serif" font-size="14" text-anchor="start">_transfer(sender: address, recipient: address, amount: uint256)</text><text x="896.615" y="-651.5" fill="#000" font-family="Times,serif" font-size="14" text-anchor="start">_mint(account: address, amount: uint256)</text><text x="896.615" y="-634.7" fill="#000" font-family="Times,serif" font-size="14" text-anchor="start">_burn(account: address, value: uint256)</text><text x="896.615" y="-617.9" fill="#000" font-family="Times,serif" font-size="14" text-anchor="start">_approve(owner: address, spender: address, value: uint256)</text><text x="896.615" y="-601.1" fill="#000" font-family="Times,serif" font-size="14" text-anchor="start">_burnFrom(account: address, amount: uint256)</text><text x="896.615" y="-584.3" fill="#000" font-family="Times,serif" font-size="14" text-anchor="start">Public:</text><text x="896.615" y="-567.5" fill="#000" font-family="Times,serif" font-size="14" text-anchor="start">totalSupply(): uint256</text><text x="896.615" y="-550.7" fill="#000" font-family="Times,serif" font-size="14" text-anchor="start">balanceOf(account: address): uint256</text><text x="896.615" y="-533.9" fill="#000" font-family="Times,serif" font-size="14" text-anchor="start">transfer(recipient: address, amount: uint256): bool</text><text x="896.615" y="-517.1" fill="#000" font-family="Times,serif" font-size="14" text-anchor="start">allowance(owner: address, spender: address): uint256</text><text x="896.615" y="-500.3" fill="#000" font-family="Times,serif" font-size="14" text-anchor="start">approve(spender: address, value: uint256): bool</text><text x="896.615" y="-483.5" fill="#000" font-family="Times,serif" font-size="14" text-anchor="start">transferFrom(sender: address, recipient: address, amount: uint256): bool</text><text x="896.615" y="-466.7" fill="#000" font-family="Times,serif" font-size="14" text-anchor="start">increaseAllowance(spender: address, addedValue: uint256): bool</text><text x="896.615" y="-449.9" fill="#000" font-family="Times,serif" font-size="14" text-anchor="start">decreaseAllowance(spender: address, subtractedValue: uint256): bool</text></g><g id="node7" class="node"><title>7</title><polygon fill="#f2f2f2" stroke="#000" points="289.865 -838.7 289.865 -1081.1 728.464 -1081.1 728.464 -838.7 289.865 -838.7"/><text x="509.164" y="-1064.5" fill="#000" font-family="Times,serif" font-size="14" text-anchor="middle">&lt;&lt;Interface&gt;&gt;</text><text x="509.164" y="-1047.7" fill="#000" font-family="Times,serif" font-size="14" text-anchor="middle">IERC20</text><polyline fill="none" stroke="#000" points="289.865 -1039.5 728.464 -1039.5"/><polyline fill="none" stroke="#000" points="289.865 -1014.7 728.464 -1014.7"/><text x="297.865" y="-998.1" fill="#000" font-family="Times,serif" font-size="14" text-anchor="start">External:</text><text x="297.865" y="-981.3" fill="#000" font-family="Times,serif" font-size="14" text-anchor="start">totalSupply(): uint256</text><text x="297.865" y="-964.5" fill="#000" font-family="Times,serif" font-size="14" text-anchor="start">balanceOf(account: address): uint256</text><text x="297.865" y="-947.7" fill="#000" font-family="Times,serif" font-size="14" text-anchor="start">transfer(recipient: address, amount: uint256): bool</text><text x="297.865" y="-930.9" fill="#000" font-family="Times,serif" font-size="14" text-anchor="start">allowance(owner: address, spender: address): uint256</text><text x="297.865" y="-914.1" fill="#000" font-family="Times,serif" font-size="14" text-anchor="start">approve(spender: address, amount: uint256): bool</text><text x="297.865" y="-897.3" fill="#000" font-family="Times,serif" font-size="14" text-anchor="start">transferFrom(sender: address, recipient: address, amount: uint256): bool</text><text x="297.865" y="-880.5" fill="#000" font-family="Times,serif" font-size="14" text-anchor="start">Public:</text><text x="297.865" y="-863.7" fill="#000" font-family="Times,serif" font-size="14" text-anchor="start">&lt;&lt;event&gt;&gt; Transfer(from: address, to: address, value: uint256)</text><text x="297.865" y="-846.9" fill="#000" font-family="Times,serif" font-size="14" text-anchor="start">&lt;&lt;event&gt;&gt; Approval(owner: address, spender: address, value: uint256)</text></g><g id="edge1" class="edge"><title>1-&gt;7</title><path fill="none" stroke="#000" stroke-dasharray="5 2" d="M888.5829,-796.4815C885.4408,-798.4242 882.3004,-800.3315 879.1645,-802.2 840.6593,-825.1421 798.2016,-846.494 756.1943,-865.6106"/><polygon fill="none" stroke="#000" points="751.841 -856.055 728.701 -877.844 760.378 -875.241 751.841 -856.055"/></g><g id="node2" class="node"><title>2</title><polygon fill="#f2f2f2" stroke="#000" points="656.471 -246.3 656.471 -354.3 943.858 -354.3 943.858 -246.3 656.471 -246.3"/><text x="800.164" y="-337.7" fill="#000" font-family="Times,serif" font-size="14" text-anchor="middle">ERC20Burnable</text><polyline fill="none" stroke="#000" points="656.471 -329.5 943.858 -329.5"/><polyline fill="none" stroke="#000" points="656.471 -304.7 943.858 -304.7"/><text x="664.471" y="-288.1" fill="#000" font-family="Times,serif" font-size="14" text-anchor="start">Public:</text><text x="664.471" y="-271.3" fill="#000" font-family="Times,serif" font-size="14" text-anchor="start">burn(amount: uint256)</text><text x="664.471" y="-254.5" fill="#000" font-family="Times,serif" font-size="14" text-anchor="start">burnFrom(account: address, amount: uint256)</text></g><g id="edge2" class="edge"><title>2-&gt;1</title><path fill="none" stroke="#000" d="M851.7272,-354.4577C869.6582,-373.2911 890.9722,-395.6777 913.5199,-419.3603"/><polygon fill="none" stroke="#000" points="906.221 -426.922 934.512 -441.409 921.431 -412.442 906.221 -426.922"/></g><g id="node3" class="node"><title>3</title><polygon fill="#f2f2f2" stroke="#000" points="979.97 -.5 979.97 -158.9 1232.359 -158.9 1232.359 -.5 979.97 -.5"/><text x="1106.165" y="-142.3" fill="#000" font-family="Times,serif" font-size="14" text-anchor="middle">ERC20Capped</text><polyline fill="none" stroke="#000" points="979.97 -134.1 1232.359 -134.1"/><text x="987.97" y="-117.5" fill="#000" font-family="Times,serif" font-size="14" text-anchor="start">Private:</text><text x="987.97" y="-100.7" fill="#000" font-family="Times,serif" font-size="14" text-anchor="start">_cap: uint256</text><polyline fill="none" stroke="#000" points="979.97 -92.5 1232.359 -92.5"/><text x="987.97" y="-75.9" fill="#000" font-family="Times,serif" font-size="14" text-anchor="start">Internal:</text><text x="987.97" y="-59.1" fill="#000" font-family="Times,serif" font-size="14" text-anchor="start">_mint(account: address, value: uint256)</text><text x="987.97" y="-42.3" fill="#000" font-family="Times,serif" font-size="14" text-anchor="start">Public:</text><text x="987.97" y="-25.5" fill="#000" font-family="Times,serif" font-size="14" text-anchor="start">constructor(cap: uint256)</text><text x="987.97" y="-8.7" fill="#000" font-family="Times,serif" font-size="14" text-anchor="start">cap(): uint256</text></g><g id="node5" class="node"><title>5</title><polygon fill="#f2f2f2" stroke="#000" points="961.492 -254.7 961.492 -345.9 1250.837 -345.9 1250.837 -254.7 961.492 -254.7"/><text x="1106.165" y="-329.3" fill="#000" font-family="Times,serif" font-size="14" text-anchor="middle">ERC20Mintable</text><polyline fill="none" stroke="#000" points="961.492 -321.1 1250.837 -321.1"/><polyline fill="none" stroke="#000" points="961.492 -296.3 1250.837 -296.3"/><text x="969.492" y="-279.7" fill="#000" font-family="Times,serif" font-size="14" text-anchor="start">Public:</text><text x="969.492" y="-262.9" fill="#000" font-family="Times,serif" font-size="14" text-anchor="start">mint(account: address, amount: uint256): bool</text></g><g id="edge3" class="edge"><title>3-&gt;5</title><path fill="none" stroke="#000" d="M1106.1645,-159.03C1106.1645,-180.357 1106.1645,-203.3651 1106.1645,-224.4951"/><polygon fill="none" stroke="#000" points="1095.665 -224.661 1106.165 -254.661 1116.665 -224.661 1095.665 -224.661"/></g><g id="node4" class="node"><title>4</title><polygon fill="#f2f2f2" stroke="#000" points="0 -525.7 0 -717.7 352.329 -717.7 352.329 -525.7 0 -525.7"/><text x="176.165" y="-701.1" fill="#000" font-family="Times,serif" font-size="14" text-anchor="middle">ERC20Detailed</text><polyline fill="none" stroke="#000" points="0 -692.9 352.329 -692.9"/><text x="8" y="-676.3" fill="#000" font-family="Times,serif" font-size="14" text-anchor="start">Private:</text><text x="8" y="-659.5" fill="#000" font-family="Times,serif" font-size="14" text-anchor="start">_name: string</text><text x="8" y="-642.7" fill="#000" font-family="Times,serif" font-size="14" text-anchor="start">_symbol: string</text><text x="8" y="-625.9" fill="#000" font-family="Times,serif" font-size="14" text-anchor="start">_decimals: uint8</text><polyline fill="none" stroke="#000" points="0 -617.7 352.329 -617.7"/><text x="8" y="-601.1" fill="#000" font-family="Times,serif" font-size="14" text-anchor="start">Public:</text><text x="8" y="-584.3" fill="#000" font-family="Times,serif" font-size="14" text-anchor="start">constructor(name: string, symbol: string, decimals: uint8)</text><text x="8" y="-567.5" fill="#000" font-family="Times,serif" font-size="14" text-anchor="start">name(): string</text><text x="8" y="-550.7" fill="#000" font-family="Times,serif" font-size="14" text-anchor="start">symbol(): string</text><text x="8" y="-533.9" fill="#000" font-family="Times,serif" font-size="14" text-anchor="start">decimals(): uint8</text></g><g id="edge4" class="edge"><title>4-&gt;7</title><path fill="none" stroke="#000" stroke-dasharray="5 2" d="M270.6982,-717.7099C301.0618,-748.5476 335.3794,-783.4011 368.3237,-816.8599"/><polygon fill="none" stroke="#000" points="361.189 -824.579 389.719 -838.59 376.153 -809.846 361.189 -824.579"/></g><g id="edge5" class="edge"><title>5-&gt;1</title><path fill="none" stroke="#000" d="M1106.1645,-346.0075C1106.1645,-364.3657 1106.1645,-386.9286 1106.1645,-411.1705"/><polygon fill="none" stroke="#000" points="1095.665 -411.403 1106.165 -441.403 1116.665 -411.403 1095.665 -411.403"/></g><g id="node6" class="node"><title>6</title><polygon fill="#f2f2f2" stroke="#000" points="1268.939 -221.1 1268.939 -379.5 1669.39 -379.5 1669.39 -221.1 1268.939 -221.1"/><text x="1469.165" y="-362.9" fill="#000" font-family="Times,serif" font-size="14" text-anchor="middle">ERC20Pausable</text><polyline fill="none" stroke="#000" points="1268.939 -354.7 1669.39 -354.7"/><polyline fill="none" stroke="#000" points="1268.939 -329.9 1669.39 -329.9"/><text x="1276.939" y="-313.3" fill="#000" font-family="Times,serif" font-size="14" text-anchor="start">Public:</text><text x="1276.939" y="-296.5" fill="#000" font-family="Times,serif" font-size="14" text-anchor="start">transfer(to: address, value: uint256): bool</text><text x="1276.939" y="-279.7" fill="#000" font-family="Times,serif" font-size="14" text-anchor="start">transferFrom(from: address, to: address, value: uint256): bool</text><text x="1276.939" y="-262.9" fill="#000" font-family="Times,serif" font-size="14" text-anchor="start">approve(spender: address, value: uint256): bool</text><text x="1276.939" y="-246.1" fill="#000" font-family="Times,serif" font-size="14" text-anchor="start">increaseAllowance(spender: address, addedValue: uint): bool</text><text x="1276.939" y="-229.3" fill="#000" font-family="Times,serif" font-size="14" text-anchor="start">decreaseAllowance(spender: address, subtractedValue: uint): bool</text></g><g id="edge6" class="edge"><title>6-&gt;1</title><path fill="none" stroke="#000" d="M1379.4341,-379.7472C1364.6392,-392.8467 1348.7402,-406.9236 1332.3214,-421.4608"/><polygon fill="none" stroke="#000" points="1325.165 -413.772 1309.665 -441.521 1339.086 -429.495 1325.165 -413.772"/></g><g id="node8" class="node"><title>8</title><polygon fill="#f2f2f2" stroke="#000" points="408.008 -517.3 408.008 -726.1 870.321 -726.1 870.321 -517.3 408.008 -517.3"/><text x="639.164" y="-709.5" fill="#000" font-family="Times,serif" font-size="14" text-anchor="middle">&lt;&lt;Library&gt;&gt;</text><text x="639.164" y="-692.7" fill="#000" font-family="Times,serif" font-size="14" text-anchor="middle">SafeERC20</text><polyline fill="none" stroke="#000" points="408.008 -684.5 870.321 -684.5"/><polyline fill="none" stroke="#000" points="408.008 -659.7 870.321 -659.7"/><text x="416.008" y="-643.1" fill="#000" font-family="Times,serif" font-size="14" text-anchor="start">Private:</text><text x="416.008" y="-626.3" fill="#000" font-family="Times,serif" font-size="14" text-anchor="start">callOptionalReturn(token: IERC20, data: bytes)</text><text x="416.008" y="-609.5" fill="#000" font-family="Times,serif" font-size="14" text-anchor="start">Internal:</text><text x="416.008" y="-592.7" fill="#000" font-family="Times,serif" font-size="14" text-anchor="start">safeTransfer(token: IERC20, to: address, value: uint256)</text><text x="416.008" y="-575.9" fill="#000" font-family="Times,serif" font-size="14" text-anchor="start">safeTransferFrom(token: IERC20, from: address, to: address, value: uint256)</text><text x="416.008" y="-559.1" fill="#000" font-family="Times,serif" font-size="14" text-anchor="start">safeApprove(token: IERC20, spender: address, value: uint256)</text><text x="416.008" y="-542.3" fill="#000" font-family="Times,serif" font-size="14" text-anchor="start">safeIncreaseAllowance(token: IERC20, spender: address, value: uint256)</text><text x="416.008" y="-525.5" fill="#000" font-family="Times,serif" font-size="14" text-anchor="start">safeDecreaseAllowance(token: IERC20, spender: address, value: uint256)</text></g><g id="edge7" class="edge"><title>8-&gt;7</title><path fill="none" stroke="#000" stroke-dasharray="5 2" d="M598.922,-726.3925C586.4484,-758.8428 572.5449,-795.0136 559.477,-829.0101"/><polygon fill="#000" stroke="#000" points="556.136 -827.946 555.815 -838.536 562.67 -830.458 556.136 -827.946"/></g><g id="node9" class="node"><title>9</title><polygon fill="#f2f2f2" stroke="#000" points="186.372 -195.9 186.372 -404.7 617.957 -404.7 617.957 -195.9 186.372 -195.9"/><text x="402.164" y="-388.1" fill="#000" font-family="Times,serif" font-size="14" text-anchor="middle">TokenTimelock</text><polyline fill="none" stroke="#000" points="186.372 -379.9 617.957 -379.9"/><text x="194.372" y="-363.3" fill="#000" font-family="Times,serif" font-size="14" text-anchor="start">Private:</text><text x="194.372" y="-346.5" fill="#000" font-family="Times,serif" font-size="14" text-anchor="start">_token: IERC20</text><text x="194.372" y="-329.7" fill="#000" font-family="Times,serif" font-size="14" text-anchor="start">_beneficiary: address</text><text x="194.372" y="-312.9" fill="#000" font-family="Times,serif" font-size="14" text-anchor="start">_releaseTime: uint256</text><polyline fill="none" stroke="#000" points="186.372 -304.7 617.957 -304.7"/><text x="194.372" y="-288.1" fill="#000" font-family="Times,serif" font-size="14" text-anchor="start">Public:</text><text x="194.372" y="-271.3" fill="#000" font-family="Times,serif" font-size="14" text-anchor="start">constructor(token: IERC20, beneficiary: address, releaseTime: uint256)</text><text x="194.372" y="-254.5" fill="#000" font-family="Times,serif" font-size="14" text-anchor="start">token(): IERC20</text><text x="194.372" y="-237.7" fill="#000" font-family="Times,serif" font-size="14" text-anchor="start">beneficiary(): address</text><text x="194.372" y="-220.9" fill="#000" font-family="Times,serif" font-size="14" text-anchor="start">releaseTime(): uint256</text><text x="194.372" y="-204.1" fill="#000" font-family="Times,serif" font-size="14" text-anchor="start">release()</text></g><g id="edge9" class="edge"><title>9-&gt;7</title><path fill="none" stroke="#000" d="M383.3057,-404.9389C368.8399,-508.4261 357.6214,-670.0272 399.1645,-802.2 402.0245,-811.2994 405.6166,-820.3323 409.7415,-829.2"/><polygon fill="#000" stroke="#000" points="406.69 -830.928 414.225 -838.377 412.98 -827.856 406.69 -830.928"/></g><g id="edge8" class="edge"><title>9-&gt;8</title><path fill="none" stroke="#000" stroke-dasharray="5 2" d="M479.4392,-405.0937C503.95,-438.3332 531.149,-475.2182 556.0522,-508.9899"/><polygon fill="#000" stroke="#000" points="553.243 -511.077 561.995 -517.049 558.877 -506.923 553.243 -511.077"/></g></g></svg>