<svg xmlns="http://www.w3.org/2000/svg" xmlns:xlink="http://www.w3.org/1999/xlink" width="1790pt" height="1073pt" viewBox="0 0 1790.32 1072.8"><g id="graph0" class="graph" transform="scale(1 1) rotate(0) translate(4 1068.8)"><title>UmlClassDiagram</title><polygon fill="#fff" stroke="transparent" points="-4 4 -4 -1068.8 1786.319 -1068.8 1786.319 4 -4 4"/><g id="node1" class="node"><title>33</title><polygon fill="#f2f2f2" stroke="#000" points="0 -872.3 0 -1013.9 245.764 -1013.9 245.764 -872.3 0 -872.3"/><text x="122.882" y="-997.3" fill="#000" font-family="Times,serif" font-size="14" text-anchor="middle">&lt;&lt;Library&gt;&gt;</text><text x="122.882" y="-980.5" fill="#000" font-family="Times,serif" font-size="14" text-anchor="middle">Roles</text><polyline fill="none" stroke="#000" points="0 -972.3 245.764 -972.3"/><polyline fill="none" stroke="#000" points="0 -947.5 245.764 -947.5"/><text x="8" y="-930.9" fill="#000" font-family="Times,serif" font-size="14" text-anchor="start">Internal:</text><text x="8" y="-914.1" fill="#000" font-family="Times,serif" font-size="14" text-anchor="start">add(role: Role, account: address)</text><text x="8" y="-897.3" fill="#000" font-family="Times,serif" font-size="14" text-anchor="start">remove(role: Role, account: address)</text><text x="8" y="-880.5" fill="#000" font-family="Times,serif" font-size="14" text-anchor="start">has(role: Role, account: address): bool</text></g><g id="node2" class="node"><title>33struct0</title><polygon fill="#f2f2f2" stroke="#000" points="23.216 -571.7 23.216 -638.1 222.548 -638.1 222.548 -571.7 23.216 -571.7"/><text x="122.882" y="-621.5" fill="#000" font-family="Times,serif" font-size="14" text-anchor="middle">&lt;&lt;struct&gt;&gt;</text><text x="122.882" y="-604.7" fill="#000" font-family="Times,serif" font-size="14" text-anchor="middle">Role</text><polyline fill="none" stroke="#000" points="23.216 -596.5 222.548 -596.5"/><text x="31.216" y="-579.9" fill="#000" font-family="Times,serif" font-size="14" text-anchor="start">bearer: mapping(address=&gt;bool)</text></g><g id="edge1" class="edge"><title>33struct0-&gt;33</title><path fill="none" stroke="#000" d="M122.8819,-638.2535C122.8819,-689.3728 122.8819,-788.6643 122.8819,-860.0557"/><polygon fill="#000" stroke="#000" points="122.882 -860.151 126.882 -866.151 122.882 -872.151 118.882 -866.151 122.882 -860.151"/></g><g id="node3" class="node"><title>67</title><polygon fill="#f2f2f2" stroke="#000" points="240.191 -475.3 240.191 -734.5 529.572 -734.5 529.572 -475.3 240.191 -475.3"/><text x="384.882" y="-717.9" fill="#000" font-family="Times,serif" font-size="14" text-anchor="middle">MinterRole</text><polyline fill="none" stroke="#000" points="240.191 -709.7 529.572 -709.7"/><text x="248.191" y="-693.1" fill="#000" font-family="Times,serif" font-size="14" text-anchor="start">Private:</text><text x="248.191" y="-676.3" fill="#000" font-family="Times,serif" font-size="14" text-anchor="start">_minters: Roles.Role</text><polyline fill="none" stroke="#000" points="240.191 -668.1 529.572 -668.1"/><text x="248.191" y="-651.5" fill="#000" font-family="Times,serif" font-size="14" text-anchor="start">Internal:</text><text x="248.191" y="-634.7" fill="#000" font-family="Times,serif" font-size="14" text-anchor="start">_addMinter(account: address)</text><text x="248.191" y="-617.9" fill="#000" font-family="Times,serif" font-size="14" text-anchor="start">_removeMinter(account: address)</text><text x="248.191" y="-601.1" fill="#000" font-family="Times,serif" font-size="14" text-anchor="start">Public:</text><text x="248.191" y="-584.3" fill="#000" font-family="Times,serif" font-size="14" text-anchor="start">&lt;&lt;event&gt;&gt; MinterAdded(account: address)</text><text x="248.191" y="-567.5" fill="#000" font-family="Times,serif" font-size="14" text-anchor="start">&lt;&lt;event&gt;&gt; MinterRemoved(account: address)</text><text x="248.191" y="-550.7" fill="#000" font-family="Times,serif" font-size="14" text-anchor="start">&lt;&lt;modifier&gt;&gt; onlyMinter()</text><text x="248.191" y="-533.9" fill="#000" font-family="Times,serif" font-size="14" text-anchor="start">constructor()</text><text x="248.191" y="-517.1" fill="#000" font-family="Times,serif" font-size="14" text-anchor="start">isMinter(account: address): bool</text><text x="248.191" y="-500.3" fill="#000" font-family="Times,serif" font-size="14" text-anchor="start">addMinter(account: address)</text><text x="248.191" y="-483.5" fill="#000" font-family="Times,serif" font-size="14" text-anchor="start">renounceMinter()</text></g><g id="edge2" class="edge"><title>67-&gt;33</title><path fill="none" stroke="#000" d="M284.3352,-734.6897C250.5193,-778.3406 213.8374,-825.691 183.9963,-864.2111"/><polygon fill="#000" stroke="#000" points="181.093 -862.244 177.736 -872.292 186.627 -866.53 181.093 -862.244"/></g><g id="node4" class="node"><title>51</title><polygon fill="#f2f2f2" stroke="#000" points="630.411 -855.5 630.411 -1030.7 865.353 -1030.7 865.353 -855.5 630.411 -855.5"/><text x="747.882" y="-1014.1" fill="#000" font-family="Times,serif" font-size="14" text-anchor="middle">&lt;&lt;Library&gt;&gt;</text><text x="747.882" y="-997.3" fill="#000" font-family="Times,serif" font-size="14" text-anchor="middle">SafeMath</text><polyline fill="none" stroke="#000" points="630.411 -989.1 865.353 -989.1"/><polyline fill="none" stroke="#000" points="630.411 -964.3 865.353 -964.3"/><text x="638.411" y="-947.7" fill="#000" font-family="Times,serif" font-size="14" text-anchor="start">Internal:</text><text x="638.411" y="-930.9" fill="#000" font-family="Times,serif" font-size="14" text-anchor="start">add(a: uint256, b: uint256): uint256</text><text x="638.411" y="-914.1" fill="#000" font-family="Times,serif" font-size="14" text-anchor="start">sub(a: uint256, b: uint256): uint256</text><text x="638.411" y="-897.3" fill="#000" font-family="Times,serif" font-size="14" text-anchor="start">mul(a: uint256, b: uint256): uint256</text><text x="638.411" y="-880.5" fill="#000" font-family="Times,serif" font-size="14" text-anchor="start">div(a: uint256, b: uint256): uint256</text><text x="638.411" y="-863.7" fill="#000" font-family="Times,serif" font-size="14" text-anchor="start">mod(a: uint256, b: uint256): uint256</text></g><g id="node5" class="node"><title>52</title><polygon fill="#f2f2f2" stroke="#000" points="1297.445 -145.5 1297.445 -387.9 1782.319 -387.9 1782.319 -145.5 1297.445 -145.5"/><text x="1539.882" y="-371.3" fill="#000" font-family="Times,serif" font-size="14" text-anchor="middle">Ownable</text><polyline fill="none" stroke="#000" points="1297.445 -363.1 1782.319 -363.1"/><text x="1305.445" y="-346.5" fill="#000" font-family="Times,serif" font-size="14" text-anchor="start">Private:</text><text x="1305.445" y="-329.7" fill="#000" font-family="Times,serif" font-size="14" text-anchor="start">_owner: address</text><polyline fill="none" stroke="#000" points="1297.445 -321.5 1782.319 -321.5"/><text x="1305.445" y="-304.9" fill="#000" font-family="Times,serif" font-size="14" text-anchor="start">Internal:</text><text x="1305.445" y="-288.1" fill="#000" font-family="Times,serif" font-size="14" text-anchor="start">_transferOwnership(newOwner: address)</text><text x="1305.445" y="-271.3" fill="#000" font-family="Times,serif" font-size="14" text-anchor="start">Public:</text><text x="1305.445" y="-254.5" fill="#000" font-family="Times,serif" font-size="14" text-anchor="start">&lt;&lt;event&gt;&gt; OwnershipTransferred(previousOwner: address, newOwner: address)</text><text x="1305.445" y="-237.7" fill="#000" font-family="Times,serif" font-size="14" text-anchor="start">&lt;&lt;modifier&gt;&gt; onlyOwner()</text><text x="1305.445" y="-220.9" fill="#000" font-family="Times,serif" font-size="14" text-anchor="start">constructor()</text><text x="1305.445" y="-204.1" fill="#000" font-family="Times,serif" font-size="14" text-anchor="start">owner(): address</text><text x="1305.445" y="-187.3" fill="#000" font-family="Times,serif" font-size="14" text-anchor="start">isOwner(): bool</text><text x="1305.445" y="-170.5" fill="#000" font-family="Times,serif" font-size="14" text-anchor="start">renounceOwnership()</text><text x="1305.445" y="-153.7" fill="#000" font-family="Times,serif" font-size="14" text-anchor="start">transferOwnership(newOwner: address)</text></g><g id="node6" class="node"><title>89</title><polygon fill="#f2f2f2" stroke="#000" points="547.332 -424.9 547.332 -784.9 982.432 -784.9 982.432 -424.9 547.332 -424.9"/><text x="764.882" y="-768.3" fill="#000" font-family="Times,serif" font-size="14" text-anchor="middle">ERC20</text><polyline fill="none" stroke="#000" points="547.332 -760.1 982.432 -760.1"/><text x="555.332" y="-743.5" fill="#000" font-family="Times,serif" font-size="14" text-anchor="start">Private:</text><text x="555.332" y="-726.7" fill="#000" font-family="Times,serif" font-size="14" text-anchor="start">_balances: mapping(address=&gt;uint256)</text><text x="555.332" y="-709.9" fill="#000" font-family="Times,serif" font-size="14" text-anchor="start">_allowances: mapping(address=&gt;mapping(address=&gt;uint256))</text><text x="555.332" y="-693.1" fill="#000" font-family="Times,serif" font-size="14" text-anchor="start">_totalSupply: uint256</text><polyline fill="none" stroke="#000" points="547.332 -684.9 982.432 -684.9"/><text x="555.332" y="-668.3" fill="#000" font-family="Times,serif" font-size="14" text-anchor="start">Internal:</text><text x="555.332" y="-651.5" fill="#000" font-family="Times,serif" font-size="14" text-anchor="start">_transfer(sender: address, recipient: address, amount: uint256)</text><text x="555.332" y="-634.7" fill="#000" font-family="Times,serif" font-size="14" text-anchor="start">_mint(account: address, amount: uint256)</text><text x="555.332" y="-617.9" fill="#000" font-family="Times,serif" font-size="14" text-anchor="start">_burn(account: address, value: uint256)</text><text x="555.332" y="-601.1" fill="#000" font-family="Times,serif" font-size="14" text-anchor="start">_approve(owner: address, spender: address, value: uint256)</text><text x="555.332" y="-584.3" fill="#000" font-family="Times,serif" font-size="14" text-anchor="start">_burnFrom(account: address, amount: uint256)</text><text x="555.332" y="-567.5" fill="#000" font-family="Times,serif" font-size="14" text-anchor="start">Public:</text><text x="555.332" y="-550.7" fill="#000" font-family="Times,serif" font-size="14" text-anchor="start">totalSupply(): uint256</text><text x="555.332" y="-533.9" fill="#000" font-family="Times,serif" font-size="14" text-anchor="start">balanceOf(account: address): uint256</text><text x="555.332" y="-517.1" fill="#000" font-family="Times,serif" font-size="14" text-anchor="start">transfer(recipient: address, amount: uint256): bool</text><text x="555.332" y="-500.3" fill="#000" font-family="Times,serif" font-size="14" text-anchor="start">allowance(owner: address, spender: address): uint256</text><text x="555.332" y="-483.5" fill="#000" font-family="Times,serif" font-size="14" text-anchor="start">approve(spender: address, value: uint256): bool</text><text x="555.332" y="-466.7" fill="#000" font-family="Times,serif" font-size="14" text-anchor="start">transferFrom(sender: address, recipient: address, amount: uint256): bool</text><text x="555.332" y="-449.9" fill="#000" font-family="Times,serif" font-size="14" text-anchor="start">increaseAllowance(spender: address, addedValue: uint256): bool</text><text x="555.332" y="-433.1" fill="#000" font-family="Times,serif" font-size="14" text-anchor="start">decreaseAllowance(spender: address, subtractedValue: uint256): bool</text></g><g id="edge4" class="edge"><title>89-&gt;51</title><path fill="none" stroke="#000" stroke-dasharray="5 2" d="M755.8095,-785.3868C754.7767,-805.9336 753.7552,-826.2553 752.8064,-845.131"/><polygon fill="#000" stroke="#000" points="749.309 -844.998 752.302 -855.161 756.3 -845.349 749.309 -844.998"/></g><g id="node10" class="node"><title>95</title><polygon fill="#f2f2f2" stroke="#000" points="883.582 -821.9 883.582 -1064.3 1322.182 -1064.3 1322.182 -821.9 883.582 -821.9"/><text x="1102.882" y="-1047.7" fill="#000" font-family="Times,serif" font-size="14" text-anchor="middle">&lt;&lt;Interface&gt;&gt;</text><text x="1102.882" y="-1030.9" fill="#000" font-family="Times,serif" font-size="14" text-anchor="middle">IERC20</text><polyline fill="none" stroke="#000" points="883.582 -1022.7 1322.182 -1022.7"/><polyline fill="none" stroke="#000" points="883.582 -997.9 1322.182 -997.9"/><text x="891.582" y="-981.3" fill="#000" font-family="Times,serif" font-size="14" text-anchor="start">External:</text><text x="891.582" y="-964.5" fill="#000" font-family="Times,serif" font-size="14" text-anchor="start">totalSupply(): uint256</text><text x="891.582" y="-947.7" fill="#000" font-family="Times,serif" font-size="14" text-anchor="start">balanceOf(account: address): uint256</text><text x="891.582" y="-930.9" fill="#000" font-family="Times,serif" font-size="14" text-anchor="start">transfer(recipient: address, amount: uint256): bool</text><text x="891.582" y="-914.1" fill="#000" font-family="Times,serif" font-size="14" text-anchor="start">allowance(owner: address, spender: address): uint256</text><text x="891.582" y="-897.3" fill="#000" font-family="Times,serif" font-size="14" text-anchor="start">approve(spender: address, amount: uint256): bool</text><text x="891.582" y="-880.5" fill="#000" font-family="Times,serif" font-size="14" text-anchor="start">transferFrom(sender: address, recipient: address, amount: uint256): bool</text><text x="891.582" y="-863.7" fill="#000" font-family="Times,serif" font-size="14" text-anchor="start">Public:</text><text x="891.582" y="-846.9" fill="#000" font-family="Times,serif" font-size="14" text-anchor="start">&lt;&lt;event&gt;&gt; Transfer(from: address, to: address, value: uint256)</text><text x="891.582" y="-830.1" fill="#000" font-family="Times,serif" font-size="14" text-anchor="start">&lt;&lt;event&gt;&gt; Approval(owner: address, spender: address, value: uint256)</text></g><g id="edge3" class="edge"><title>89-&gt;95</title><path fill="none" stroke="#000" stroke-dasharray="5 2" d="M945.2619,-785.3868C950.2466,-790.3744 955.218,-795.3487 960.1587,-800.2924"/><polygon fill="none" stroke="#000" points="952.937 -807.92 981.57 -821.717 967.79 -793.075 952.937 -807.92"/></g><g id="node7" class="node"><title>90</title><polygon fill="#f2f2f2" stroke="#000" points="621.188 -212.7 621.188 -320.7 908.576 -320.7 908.576 -212.7 621.188 -212.7"/><text x="764.882" y="-304.1" fill="#000" font-family="Times,serif" font-size="14" text-anchor="middle">ERC20Burnable</text><polyline fill="none" stroke="#000" points="621.188 -295.9 908.576 -295.9"/><polyline fill="none" stroke="#000" points="621.188 -271.1 908.576 -271.1"/><text x="629.188" y="-254.5" fill="#000" font-family="Times,serif" font-size="14" text-anchor="start">Public:</text><text x="629.188" y="-237.7" fill="#000" font-family="Times,serif" font-size="14" text-anchor="start">burn(amount: uint256)</text><text x="629.188" y="-220.9" fill="#000" font-family="Times,serif" font-size="14" text-anchor="start">burnFrom(account: address, amount: uint256)</text></g><g id="edge5" class="edge"><title>90-&gt;89</title><path fill="none" stroke="#000" d="M764.8819,-321.0377C764.8819,-342.0424 764.8819,-367.52 764.8819,-394.4912"/><polygon fill="none" stroke="#000" points="754.382 -394.807 764.882 -424.807 775.382 -394.807 754.382 -394.807"/></g><g id="node8" class="node"><title>92</title><polygon fill="#f2f2f2" stroke="#000" points="926.717 -170.7 926.717 -362.7 1279.046 -362.7 1279.046 -170.7 926.717 -170.7"/><text x="1102.882" y="-346.1" fill="#000" font-family="Times,serif" font-size="14" text-anchor="middle">ERC20Detailed</text><polyline fill="none" stroke="#000" points="926.717 -337.9 1279.046 -337.9"/><text x="934.717" y="-321.3" fill="#000" font-family="Times,serif" font-size="14" text-anchor="start">Private:</text><text x="934.717" y="-304.5" fill="#000" font-family="Times,serif" font-size="14" text-anchor="start">_name: string</text><text x="934.717" y="-287.7" fill="#000" font-family="Times,serif" font-size="14" text-anchor="start">_symbol: string</text><text x="934.717" y="-270.9" fill="#000" font-family="Times,serif" font-size="14" text-anchor="start">_decimals: uint8</text><polyline fill="none" stroke="#000" points="926.717 -262.7 1279.046 -262.7"/><text x="934.717" y="-246.1" fill="#000" font-family="Times,serif" font-size="14" text-anchor="start">Public:</text><text x="934.717" y="-229.3" fill="#000" font-family="Times,serif" font-size="14" text-anchor="start">constructor(name: string, symbol: string, decimals: uint8)</text><text x="934.717" y="-212.5" fill="#000" font-family="Times,serif" font-size="14" text-anchor="start">name(): string</text><text x="934.717" y="-195.7" fill="#000" font-family="Times,serif" font-size="14" text-anchor="start">symbol(): string</text><text x="934.717" y="-178.9" fill="#000" font-family="Times,serif" font-size="14" text-anchor="start">decimals(): uint8</text></g><g id="edge6" class="edge"><title>92-&gt;95</title><path fill="none" stroke="#000" stroke-dasharray="5 2" d="M1102.8819,-362.8933C1102.8819,-474.6924 1102.8819,-660.585 1102.8819,-791.7832"/><polygon fill="none" stroke="#000" points="1092.382 -791.801 1102.882 -821.801 1113.382 -791.801 1092.382 -791.801"/></g><g id="node9" class="node"><title>93</title><polygon fill="#f2f2f2" stroke="#000" points="314.209 -221.1 314.209 -312.3 603.555 -312.3 603.555 -221.1 314.209 -221.1"/><text x="458.882" y="-295.7" fill="#000" font-family="Times,serif" font-size="14" text-anchor="middle">ERC20Mintable</text><polyline fill="none" stroke="#000" points="314.209 -287.5 603.555 -287.5"/><polyline fill="none" stroke="#000" points="314.209 -262.7 603.555 -262.7"/><text x="322.209" y="-246.1" fill="#000" font-family="Times,serif" font-size="14" text-anchor="start">Public:</text><text x="322.209" y="-229.3" fill="#000" font-family="Times,serif" font-size="14" text-anchor="start">mint(account: address, amount: uint256): bool</text></g><g id="edge8" class="edge"><title>93-&gt;67</title><path fill="none" stroke="#000" d="M448.9019,-312.3112C441.3031,-347.0399 430.361,-397.048 419.6667,-445.9242"/><polygon fill="none" stroke="#000" points="409.405 -443.701 413.25 -475.252 429.92 -448.19 409.405 -443.701"/></g><g id="edge7" class="edge"><title>93-&gt;89</title><path fill="none" stroke="#000" d="M500.1504,-312.3112C522.2309,-336.7152 551.138,-368.6641 581.7192,-402.4633"/><polygon fill="none" stroke="#000" points="574.088 -409.68 602.002 -424.881 589.66 -395.59 574.088 -409.68"/></g><g id="node11" class="node"><title>25</title><polygon fill="#f2f2f2" stroke="#000" points="623.595 -.5 623.595 -108.5 1244.169 -108.5 1244.169 -.5 623.595 -.5"/><text x="933.882" y="-91.9" fill="#000" font-family="Times,serif" font-size="14" text-anchor="middle">OzToken</text><polyline fill="none" stroke="#000" points="623.595 -83.7 1244.169 -83.7"/><polyline fill="none" stroke="#000" points="623.595 -58.9 1244.169 -58.9"/><text x="631.595" y="-42.3" fill="#000" font-family="Times,serif" font-size="14" text-anchor="start">Public:</text><text x="631.595" y="-25.5" fill="#000" font-family="Times,serif" font-size="14" text-anchor="start">constructor(_name: string, _symbol: string, _decimals: uint8, _tokenOwner: address, _minters: address[])</text><text x="631.595" y="-8.7" fill="#000" font-family="Times,serif" font-size="14" text-anchor="start">transferFrom(sender: address, recipient: address, amount: uint256): bool</text></g><g id="edge9" class="edge"><title>25-&gt;52</title><path fill="none" stroke="#000" d="M1172.4729,-108.5372C1203.2251,-117.0656 1234.3932,-126.4725 1268.8084,-138.3562"/><polygon fill="none" stroke="#000" points="1265.375 -148.279 1297.159 -148.448 1272.418 -128.495 1265.375 -148.279"/></g><g id="edge11" class="edge"><title>25-&gt;90</title><path fill="none" stroke="#000" d="M890.7988,-108.5961C871.4066,-132.9454 848.1479,-162.1494 826.9267,-188.7953"/><polygon fill="none" stroke="#000" points="818.656 -182.326 808.18 -212.334 835.083 -195.409 818.656 -182.326"/></g><g id="edge10" class="edge"><title>25-&gt;92</title><path fill="none" stroke="#000" d="M976.965,-108.5961C986.4953,-120.5625 996.9595,-133.7016 1007.6567,-147.1332"/><polygon fill="none" stroke="#000" points="999.473 -153.712 1026.376 -170.638 1015.9 -140.63 999.473 -153.712"/></g><g id="edge12" class="edge"><title>25-&gt;93</title><path fill="none" stroke="#000" d="M699.2551,-108.5227C669.1347,-118.8868 639.2797,-130.9804 611.8819,-145 582.7624,-159.9006 553.8837,-180.8301 529.1916,-201.1374"/><polygon fill="none" stroke="#000" points="521.979 -193.491 506.041 -220.991 535.649 -209.432 521.979 -193.491"/></g></g></svg>