<svg xmlns="http://www.w3.org/2000/svg" xmlns:xlink="http://www.w3.org/1999/xlink" width="1082pt" height="329pt" viewBox="0 0 1081.74 329.2"><g id="graph0" class="graph" transform="scale(1 1) rotate(0) translate(4 325.2)"><title>UmlClassDiagram</title><polygon fill="#fff" stroke="transparent" points="-4 4 -4 -325.2 1077.737 -325.2 1077.737 4 -4 4"/><g id="node1" class="node"><title>0</title><polygon fill="#f2f2f2" stroke="#000" points="0 -195.9 0 -320.7 255.214 -320.7 255.214 -195.9 0 -195.9"/><text x="127.607" y="-304.1" fill="#000" font-family="Times,serif" font-size="14" text-anchor="middle">VirtualA</text><polyline fill="none" stroke="#000" points="0 -295.9 255.214 -295.9"/><text x="8" y="-279.3" fill="#000" font-family="Times,serif" font-size="14" text-anchor="start">Public:</text><text x="8" y="-262.5" fill="#000" font-family="Times,serif" font-size="14" text-anchor="start">base: GlobalBaseStruct</text><polyline fill="none" stroke="#000" points="0 -254.3 255.214 -254.3"/><text x="8" y="-237.7" fill="#000" font-family="Times,serif" font-size="14" text-anchor="start">Public:</text><text x="8" y="-220.9" fill="#000" font-family="Times,serif" font-size="14" text-anchor="start">&lt;&lt;event&gt;&gt; MyEvent(_myString: string)</text><text x="8" y="-204.1" fill="#000" font-family="Times,serif" font-size="14" text-anchor="start">funA()</text></g><g id="node2" class="node"><title>1</title><polygon fill="#f2f2f2" stroke="#000" points="273.563 -212.7 273.563 -303.9 341.651 -303.9 341.651 -212.7 273.563 -212.7"/><text x="307.607" y="-287.3" fill="#000" font-family="Times,serif" font-size="14" text-anchor="middle">VirtualB</text><polyline fill="none" stroke="#000" points="273.563 -279.1 341.651 -279.1"/><polyline fill="none" stroke="#000" points="273.563 -254.3 341.651 -254.3"/><text x="281.563" y="-237.7" fill="#000" font-family="Times,serif" font-size="14" text-anchor="start">Public:</text><text x="281.563" y="-220.9" fill="#000" font-family="Times,serif" font-size="14" text-anchor="start">funA()</text></g><g id="node3" class="node"><title>2</title><polygon fill="#f2f2f2" stroke="#000" points="163.737 -34.1 163.737 -125.3 271.477 -125.3 271.477 -34.1 163.737 -34.1"/><text x="217.607" y="-108.7" fill="#000" font-family="Times,serif" font-size="14" text-anchor="middle">VirtualOverdide</text><polyline fill="none" stroke="#000" points="163.737 -100.5 271.477 -100.5"/><polyline fill="none" stroke="#000" points="163.737 -75.7 271.477 -75.7"/><text x="171.737" y="-59.1" fill="#000" font-family="Times,serif" font-size="14" text-anchor="start">Public:</text><text x="171.737" y="-42.3" fill="#000" font-family="Times,serif" font-size="14" text-anchor="start">funA()</text></g><g id="edge1" class="edge"><title>2-&gt;0</title><path fill="none" stroke="#000" d="M194.4297,-125.6939C187.7659,-138.9178 180.2598,-153.8133 172.7484,-168.7193"/><polygon fill="none" stroke="#000" points="163.309 -164.119 159.185 -195.634 182.062 -173.569 163.309 -164.119"/></g><g id="edge2" class="edge"><title>2-&gt;1</title><path fill="none" stroke="#000" d="M240.7841,-125.6939C249.9698,-143.9224 260.7562,-165.3274 270.9506,-185.5575"/><polygon fill="none" stroke="#000" points="261.631 -190.396 284.508 -212.462 280.385 -180.946 261.631 -190.396"/></g><g id="node4" class="node"><title>3</title><polygon fill="#f2f2f2" stroke="#000" points="289.4 -17.3 289.4 -142.1 429.814 -142.1 429.814 -17.3 289.4 -17.3"/><text x="359.607" y="-125.5" fill="#000" font-family="Times,serif" font-size="14" text-anchor="middle">ArrayFunctions</text><polyline fill="none" stroke="#000" points="289.4 -117.3 429.814 -117.3"/><text x="297.4" y="-100.7" fill="#000" font-family="Times,serif" font-size="14" text-anchor="start">Public:</text><text x="297.4" y="-83.9" fill="#000" font-family="Times,serif" font-size="14" text-anchor="start">myUintArray: uint[]</text><polyline fill="none" stroke="#000" points="289.4 -75.7 429.814 -75.7"/><text x="297.4" y="-59.1" fill="#000" font-family="Times,serif" font-size="14" text-anchor="start">Public:</text><text x="297.4" y="-42.3" fill="#000" font-family="Times,serif" font-size="14" text-anchor="start">add(_num: uint)</text><text x="297.4" y="-25.5" fill="#000" font-family="Times,serif" font-size="14" text-anchor="start">removeElement()</text></g><g id="node5" class="node"><title>4</title><polygon fill="#f2f2f2" stroke="#000" points="447.768 -8.9 447.768 -150.5 783.446 -150.5 783.446 -8.9 447.768 -8.9"/><text x="615.607" y="-133.9" fill="#000" font-family="Times,serif" font-size="14" text-anchor="middle">FallbackReceive</text><polyline fill="none" stroke="#000" points="447.768 -125.7 783.446 -125.7"/><polyline fill="none" stroke="#000" points="447.768 -100.9 783.446 -100.9"/><text x="455.768" y="-84.3" fill="#000" font-family="Times,serif" font-size="14" text-anchor="start">External:</text><text x="455.768" y="-67.5" fill="#000" font-family="Times,serif" font-size="14" text-anchor="start">&lt;&lt;payable&gt;&gt; null()</text><text x="455.768" y="-50.7" fill="#000" font-family="Times,serif" font-size="14" text-anchor="start">null()</text><text x="455.768" y="-33.9" fill="#000" font-family="Times,serif" font-size="14" text-anchor="start">Public:</text><text x="455.768" y="-17.1" fill="#000" font-family="Times,serif" font-size="14" text-anchor="start">&lt;&lt;event&gt;&gt; SomeEvent(_addr: address, _amount: uint)</text></g><g id="node6" class="node"><title>5</title><polygon fill="#f2f2f2" stroke="#000" points="861.577 -195.9 861.577 -320.7 1013.636 -320.7 1013.636 -195.9 861.577 -195.9"/><text x="937.607" y="-304.1" fill="#000" font-family="Times,serif" font-size="14" text-anchor="middle">TryBaseBase</text><polyline fill="none" stroke="#000" points="861.577 -295.9 1013.636 -295.9"/><polyline fill="none" stroke="#000" points="861.577 -271.1 1013.636 -271.1"/><text x="869.577" y="-254.5" fill="#000" font-family="Times,serif" font-size="14" text-anchor="start">Public:</text><text x="869.577" y="-237.7" fill="#000" font-family="Times,serif" font-size="14" text-anchor="start">funARequireFailure()</text><text x="869.577" y="-220.9" fill="#000" font-family="Times,serif" font-size="14" text-anchor="start">funBRevertFailure()</text><text x="869.577" y="-204.1" fill="#000" font-family="Times,serif" font-size="14" text-anchor="start">funCAssertFailure()</text></g><g id="node7" class="node"><title>6</title><polygon fill="#f2f2f2" stroke="#000" points="801.477 -.5 801.477 -158.9 1073.737 -158.9 1073.737 -.5 801.477 -.5"/><text x="937.607" y="-142.3" fill="#000" font-family="Times,serif" font-size="14" text-anchor="middle">TryCatch</text><polyline fill="none" stroke="#000" points="801.477 -134.1 1073.737 -134.1"/><text x="809.477" y="-117.5" fill="#000" font-family="Times,serif" font-size="14" text-anchor="start">Public:</text><text x="809.477" y="-100.7" fill="#000" font-family="Times,serif" font-size="14" text-anchor="start">instA: TryBaseBase</text><polyline fill="none" stroke="#000" points="801.477 -92.5 1073.737 -92.5"/><text x="809.477" y="-75.9" fill="#000" font-family="Times,serif" font-size="14" text-anchor="start">Public:</text><text x="809.477" y="-59.1" fill="#000" font-family="Times,serif" font-size="14" text-anchor="start">&lt;&lt;event&gt;&gt; Error(_reason: string)</text><text x="809.477" y="-42.3" fill="#000" font-family="Times,serif" font-size="14" text-anchor="start">&lt;&lt;event&gt;&gt; LowLevelError(_reason: bytes)</text><text x="809.477" y="-25.5" fill="#000" font-family="Times,serif" font-size="14" text-anchor="start">constructor()</text><text x="809.477" y="-8.7" fill="#000" font-family="Times,serif" font-size="14" text-anchor="start">testRequireTryCatch(): bool</text></g><g id="edge3" class="edge"><title>6-&gt;5</title><path fill="none" stroke="#000" d="M937.6069,-159.0767C937.6069,-167.9155 937.6069,-176.8857 937.6069,-185.635"/><polygon fill="#000" stroke="#000" points="934.107 -185.783 937.607 -195.783 941.107 -185.784 934.107 -185.783"/></g></g></svg>