<svg xmlns="http://www.w3.org/2000/svg" xmlns:xlink="http://www.w3.org/1999/xlink" width="1328" height="1352pt" viewBox="0 0 995.96 1352.2"><g id="graph0" class="graph" transform="scale(1 1) rotate(0) translate(4 1348.2)"><title>UmlClassDiagram</title><polygon fill="#fff" stroke="transparent" points="-4 4 -4 -1348.2 991.96 -1348.2 991.96 4 -4 4"/><g id="node1" class="node"><title>1</title><polygon fill="#f2f2f2" stroke="#000" points="403.253 -1176.9 403.253 -1335.3 635.086 -1335.3 635.086 -1176.9 403.253 -1176.9"/><text x="519.169" y="-1318.7" fill="#000" font-family="Times,serif" font-size="14" text-anchor="middle">&lt;&lt;Library&gt;&gt;</text><text x="519.169" y="-1301.9" fill="#000" font-family="Times,serif" font-size="14" text-anchor="middle">SafeMath</text><polyline fill="none" stroke="#000" points="403.253 -1293.7 635.086 -1293.7"/><polyline fill="none" stroke="#000" points="403.253 -1268.9 635.086 -1268.9"/><text x="411.253" y="-1252.3" fill="#000" font-family="Times,serif" font-size="14" text-anchor="start">Internal:</text><text x="411.253" y="-1235.5" fill="#000" font-family="Times,serif" font-size="14" text-anchor="start">mul(a: uint256, b: uint256): uint256</text><text x="411.253" y="-1218.7" fill="#000" font-family="Times,serif" font-size="14" text-anchor="start">div(a: uint256, b: uint256): uint256</text><text x="411.253" y="-1201.9" fill="#000" font-family="Times,serif" font-size="14" text-anchor="start">sub(a: uint256, b: uint256): uint256</text><text x="411.253" y="-1185.1" fill="#000" font-family="Times,serif" font-size="14" text-anchor="start">add(a: uint256, b: uint256): uint256</text></g><g id="node2" class="node"><title>2</title><polygon fill="#f2f2f2" stroke="#000" points="653.034 -1185.3 653.034 -1326.9 907.304 -1326.9 907.304 -1185.3 653.034 -1185.3"/><text x="780.169" y="-1310.3" fill="#000" font-family="Times,serif" font-size="14" text-anchor="middle">Ownable</text><polyline fill="none" stroke="#000" points="653.034 -1302.1 907.304 -1302.1"/><text x="661.034" y="-1285.5" fill="#000" font-family="Times,serif" font-size="14" text-anchor="start">Public:</text><text x="661.034" y="-1268.7" fill="#000" font-family="Times,serif" font-size="14" text-anchor="start">owner: address</text><polyline fill="none" stroke="#000" points="653.034 -1260.5 907.304 -1260.5"/><text x="661.034" y="-1243.9" fill="#000" font-family="Times,serif" font-size="14" text-anchor="start">Public:</text><text x="661.034" y="-1227.1" fill="#000" font-family="Times,serif" font-size="14" text-anchor="start">&lt;&lt;modifier&gt;&gt; onlyOwner()</text><text x="661.034" y="-1210.3" fill="#000" font-family="Times,serif" font-size="14" text-anchor="start">constructor()</text><text x="661.034" y="-1193.5" fill="#000" font-family="Times,serif" font-size="14" text-anchor="start">transferOwnership(newOwner: address)</text></g><g id="node3" class="node"><title>3</title><polygon fill="#f2f2f2" stroke="#000" points="22.939 -1168.5 22.939 -1343.7 385.4 -1343.7 385.4 -1168.5 22.939 -1168.5"/><text x="204.169" y="-1327.1" fill="#000" font-family="Times,serif" font-size="14" text-anchor="middle">&lt;&lt;Abstract&gt;&gt;</text><text x="204.169" y="-1310.3" fill="#000" font-family="Times,serif" font-size="14" text-anchor="middle">ERC20Basic</text><polyline fill="none" stroke="#000" points="22.939 -1302.1 385.4 -1302.1"/><text x="30.939" y="-1285.5" fill="#000" font-family="Times,serif" font-size="14" text-anchor="start">Public:</text><text x="30.939" y="-1268.7" fill="#000" font-family="Times,serif" font-size="14" text-anchor="start">_totalSupply: uint</text><polyline fill="none" stroke="#000" points="22.939 -1260.5 385.4 -1260.5"/><text x="30.939" y="-1243.9" fill="#000" font-family="Times,serif" font-size="14" text-anchor="start">Public:</text><text x="30.939" y="-1227.1" fill="#000" font-family="Times,serif" font-size="14" text-anchor="start">&lt;&lt;abstract&gt;&gt; totalSupply(): uint</text><text x="30.939" y="-1210.3" fill="#000" font-family="Times,serif" font-size="14" text-anchor="start">&lt;&lt;abstract&gt;&gt; balanceOf(who: address): uint</text><text x="30.939" y="-1193.5" fill="#000" font-family="Times,serif" font-size="14" text-anchor="start">&lt;&lt;abstract&gt;&gt; transfer(to: address, value: uint)</text><text x="30.939" y="-1176.7" fill="#000" font-family="Times,serif" font-size="14" text-anchor="start">&lt;&lt;event&gt;&gt; Transfer(from: address, to: address, value: uint)</text></g><g id="node4" class="node"><title>4</title><polygon fill="#f2f2f2" stroke="#000" points="0 -964.7 0 -1123.1 408.339 -1123.1 408.339 -964.7 0 -964.7"/><text x="204.169" y="-1106.5" fill="#000" font-family="Times,serif" font-size="14" text-anchor="middle">&lt;&lt;Abstract&gt;&gt;</text><text x="204.169" y="-1089.7" fill="#000" font-family="Times,serif" font-size="14" text-anchor="middle">ERC20</text><polyline fill="none" stroke="#000" points="0 -1081.5 408.339 -1081.5"/><polyline fill="none" stroke="#000" points="0 -1056.7 408.339 -1056.7"/><text x="8" y="-1040.1" fill="#000" font-family="Times,serif" font-size="14" text-anchor="start">Public:</text><text x="8" y="-1023.3" fill="#000" font-family="Times,serif" font-size="14" text-anchor="start">&lt;&lt;abstract&gt;&gt; allowance(owner: address, spender: address): uint</text><text x="8" y="-1006.5" fill="#000" font-family="Times,serif" font-size="14" text-anchor="start">&lt;&lt;abstract&gt;&gt; transferFrom(from: address, to: address, value: uint)</text><text x="8" y="-989.7" fill="#000" font-family="Times,serif" font-size="14" text-anchor="start">&lt;&lt;abstract&gt;&gt; approve(spender: address, value: uint)</text><text x="8" y="-972.9" fill="#000" font-family="Times,serif" font-size="14" text-anchor="start">&lt;&lt;event&gt;&gt; Approval(owner: address, spender: address, value: uint)</text></g><g id="edge1" class="edge"><title>4-&gt;3</title><path fill="none" stroke="#000" d="M204.1694,-1123.2172C204.1694,-1128.1605 204.1694,-1133.1868 204.1694,-1138.2492"/><polygon fill="none" stroke="#000" points="193.669 -1138.332 204.169 -1168.332 214.669 -1138.332 193.669 -1138.332"/></g><g id="node5" class="node"><title>5</title><polygon fill="#f2f2f2" stroke="#000" points="439.759 -956.3 439.759 -1131.5 716.58 -1131.5 716.58 -956.3 439.759 -956.3"/><text x="578.169" y="-1114.9" fill="#000" font-family="Times,serif" font-size="14" text-anchor="middle">BasicToken</text><polyline fill="none" stroke="#000" points="439.759 -1106.7 716.58 -1106.7"/><text x="447.759" y="-1090.1" fill="#000" font-family="Times,serif" font-size="14" text-anchor="start">Public:</text><text x="447.759" y="-1073.3" fill="#000" font-family="Times,serif" font-size="14" text-anchor="start">balances: mapping(address=&gt;uint)</text><text x="447.759" y="-1056.5" fill="#000" font-family="Times,serif" font-size="14" text-anchor="start">basisPointsRate: uint</text><text x="447.759" y="-1039.7" fill="#000" font-family="Times,serif" font-size="14" text-anchor="start">maximumFee: uint</text><polyline fill="none" stroke="#000" points="439.759 -1031.5 716.58 -1031.5"/><text x="447.759" y="-1014.9" fill="#000" font-family="Times,serif" font-size="14" text-anchor="start">Public:</text><text x="447.759" y="-998.1" fill="#000" font-family="Times,serif" font-size="14" text-anchor="start">&lt;&lt;modifier&gt;&gt; onlyPayloadSize(size: uint)</text><text x="447.759" y="-981.3" fill="#000" font-family="Times,serif" font-size="14" text-anchor="start">transfer(_to: address, _value: uint)</text><text x="447.759" y="-964.5" fill="#000" font-family="Times,serif" font-size="14" text-anchor="start">balanceOf(_owner: address): (balance: uint)</text></g><g id="edge4" class="edge"><title>5-&gt;1</title><path fill="none" stroke="#000" stroke-dasharray="5 2" d="M553.746,-1131.7416C550.5015,-1143.4107 547.1725,-1155.3836 543.9225,-1167.0726"/><polygon fill="#000" stroke="#000" points="540.521 -1166.239 541.215 -1176.812 547.266 -1168.115 540.521 -1166.239"/></g><g id="edge2" class="edge"><title>5-&gt;2</title><path fill="none" stroke="#000" d="M661.7887,-1131.7416C671.7097,-1142.1636 681.8615,-1152.828 691.8453,-1163.316"/><polygon fill="none" stroke="#000" points="684.329 -1170.649 712.619 -1185.139 699.539 -1156.17 684.329 -1170.649"/></g><g id="edge3" class="edge"><title>5-&gt;3</title><path fill="none" stroke="#000" d="M439.7027,-1122.4632C421.8526,-1132.591 403.3687,-1143.0783 384.9651,-1153.5202"/><polygon fill="none" stroke="#000" points="379.522 -1144.536 358.611 -1168.473 389.885 -1162.801 379.522 -1144.536"/></g><g id="node6" class="node"><title>6</title><polygon fill="#f2f2f2" stroke="#000" points="5.685 -718.9 5.685 -877.3 402.653 -877.3 402.653 -718.9 5.685 -718.9"/><text x="204.169" y="-860.7" fill="#000" font-family="Times,serif" font-size="14" text-anchor="middle">StandardToken</text><polyline fill="none" stroke="#000" points="5.685 -852.5 402.653 -852.5"/><text x="13.685" y="-835.9" fill="#000" font-family="Times,serif" font-size="14" text-anchor="start">Public:</text><text x="13.685" y="-819.1" fill="#000" font-family="Times,serif" font-size="14" text-anchor="start">allowed: mapping(address=&gt;mapping(address=&gt;uint))</text><text x="13.685" y="-802.3" fill="#000" font-family="Times,serif" font-size="14" text-anchor="start">MAX_UINT: uint</text><polyline fill="none" stroke="#000" points="5.685 -794.1 402.653 -794.1"/><text x="13.685" y="-777.5" fill="#000" font-family="Times,serif" font-size="14" text-anchor="start">Public:</text><text x="13.685" y="-760.7" fill="#000" font-family="Times,serif" font-size="14" text-anchor="start">transferFrom(_from: address, _to: address, _value: uint)</text><text x="13.685" y="-743.9" fill="#000" font-family="Times,serif" font-size="14" text-anchor="start">approve(_spender: address, _value: uint)</text><text x="13.685" y="-727.1" fill="#000" font-family="Times,serif" font-size="14" text-anchor="start">allowance(_owner: address, _spender: address): (remaining: uint)</text></g><g id="edge6" class="edge"><title>6-&gt;4</title><path fill="none" stroke="#000" d="M204.1694,-877.5648C204.1694,-895.5731 204.1694,-915.0092 204.1694,-934.0248"/><polygon fill="none" stroke="#000" points="193.669 -934.288 204.169 -964.288 214.669 -934.288 193.669 -934.288"/></g><g id="edge5" class="edge"><title>6-&gt;5</title><path fill="none" stroke="#000" d="M324.8219,-877.3952C354.9741,-897.2117 387.7704,-918.7661 419.4574,-939.5914"/><polygon fill="none" stroke="#000" points="413.723 -948.387 444.56 -956.09 425.257 -930.838 413.723 -948.387"/></g><g id="node7" class="node"><title>7</title><polygon fill="#f2f2f2" stroke="#000" points="774.378 -447.9 774.378 -639.9 987.96 -639.9 987.96 -447.9 774.378 -447.9"/><text x="881.169" y="-623.3" fill="#000" font-family="Times,serif" font-size="14" text-anchor="middle">Pausable</text><polyline fill="none" stroke="#000" points="774.378 -615.1 987.96 -615.1"/><text x="782.378" y="-598.5" fill="#000" font-family="Times,serif" font-size="14" text-anchor="start">Public:</text><text x="782.378" y="-581.7" fill="#000" font-family="Times,serif" font-size="14" text-anchor="start">paused: bool</text><polyline fill="none" stroke="#000" points="774.378 -573.5 987.96 -573.5"/><text x="782.378" y="-556.9" fill="#000" font-family="Times,serif" font-size="14" text-anchor="start">Public:</text><text x="782.378" y="-540.1" fill="#000" font-family="Times,serif" font-size="14" text-anchor="start">&lt;&lt;event&gt;&gt; Pause()</text><text x="782.378" y="-523.3" fill="#000" font-family="Times,serif" font-size="14" text-anchor="start">&lt;&lt;event&gt;&gt; Unpause()</text><text x="782.378" y="-506.5" fill="#000" font-family="Times,serif" font-size="14" text-anchor="start">&lt;&lt;modifier&gt;&gt; whenNotPaused()</text><text x="782.378" y="-489.7" fill="#000" font-family="Times,serif" font-size="14" text-anchor="start">&lt;&lt;modifier&gt;&gt; whenPaused()</text><text x="782.378" y="-472.9" fill="#000" font-family="Times,serif" font-size="14" text-anchor="start">pause()</text><text x="782.378" y="-456.1" fill="#000" font-family="Times,serif" font-size="14" text-anchor="start">unpause()</text></g><g id="edge7" class="edge"><title>7-&gt;2</title><path fill="none" stroke="#000" d="M890.9074,-640.0809C891.8414,-652.2945 892.6376,-664.6322 893.1694,-676.4 898.053,-784.4675 910.626,-813.04 893.1694,-919.8 879.7363,-1001.9531 848.992,-1091.0952 822.9588,-1156.9495"/><polygon fill="none" stroke="#000" points="813.125 -1153.26 811.596 -1185.008 832.589 -1161.143 813.125 -1153.26"/></g><g id="node8" class="node"><title>8</title><polygon fill="#f2f2f2" stroke="#000" points="420.587 -676.9 420.587 -919.3 883.751 -919.3 883.751 -676.9 420.587 -676.9"/><text x="652.169" y="-902.7" fill="#000" font-family="Times,serif" font-size="14" text-anchor="middle">BlackList</text><polyline fill="none" stroke="#000" points="420.587 -894.5 883.751 -894.5"/><text x="428.587" y="-877.9" fill="#000" font-family="Times,serif" font-size="14" text-anchor="start">Public:</text><text x="428.587" y="-861.1" fill="#000" font-family="Times,serif" font-size="14" text-anchor="start">isBlackListed: mapping(address=&gt;bool)</text><polyline fill="none" stroke="#000" points="420.587 -852.9 883.751 -852.9"/><text x="428.587" y="-836.3" fill="#000" font-family="Times,serif" font-size="14" text-anchor="start">External:</text><text x="428.587" y="-819.5" fill="#000" font-family="Times,serif" font-size="14" text-anchor="start">getBlackListStatus(_maker: address): bool</text><text x="428.587" y="-802.7" fill="#000" font-family="Times,serif" font-size="14" text-anchor="start">getOwner(): address</text><text x="428.587" y="-785.9" fill="#000" font-family="Times,serif" font-size="14" text-anchor="start">Public:</text><text x="428.587" y="-769.1" fill="#000" font-family="Times,serif" font-size="14" text-anchor="start">&lt;&lt;event&gt;&gt; DestroyedBlackFunds(_blackListedUser: address, _balance: uint)</text><text x="428.587" y="-752.3" fill="#000" font-family="Times,serif" font-size="14" text-anchor="start">&lt;&lt;event&gt;&gt; AddedBlackList(_user: address)</text><text x="428.587" y="-735.5" fill="#000" font-family="Times,serif" font-size="14" text-anchor="start">&lt;&lt;event&gt;&gt; RemovedBlackList(_user: address)</text><text x="428.587" y="-718.7" fill="#000" font-family="Times,serif" font-size="14" text-anchor="start">addBlackList(_evilUser: address)</text><text x="428.587" y="-701.9" fill="#000" font-family="Times,serif" font-size="14" text-anchor="start">removeBlackList(_clearedUser: address)</text><text x="428.587" y="-685.1" fill="#000" font-family="Times,serif" font-size="14" text-anchor="start">destroyBlackFunds(_blackListedUser: address)</text></g><g id="edge8" class="edge"><title>8-&gt;2</title><path fill="none" stroke="#000" d="M712.0586,-919.5763C716.9037,-931.6575 721.3817,-943.8663 725.1694,-955.8 745.7609,-1020.6765 759.5337,-1096.0321 768.1472,-1155.0275"/><polygon fill="none" stroke="#000" points="757.794 -1156.814 772.301 -1185.095 778.597 -1153.94 757.794 -1156.814"/></g><g id="edge9" class="edge"><title>8-&gt;5</title><path fill="none" stroke="#000" d="M615.603,-919.5598C614.8195,-922.1621 614.0358,-924.7653 613.2533,-927.3646"/><polygon fill="none" stroke="#000" points="603.187 -924.378 604.593 -956.131 623.295 -930.432 603.187 -924.378"/></g><g id="node9" class="node"><title>9</title><polygon fill="#f2f2f2" stroke="#000" points="71.957 -473.1 71.957 -614.7 656.381 -614.7 656.381 -473.1 71.957 -473.1"/><text x="364.169" y="-598.1" fill="#000" font-family="Times,serif" font-size="14" text-anchor="middle">&lt;&lt;Abstract&gt;&gt;</text><text x="364.169" y="-581.3" fill="#000" font-family="Times,serif" font-size="14" text-anchor="middle">UpgradedStandardToken</text><polyline fill="none" stroke="#000" points="71.957 -573.1 656.381 -573.1"/><polyline fill="none" stroke="#000" points="71.957 -548.3 656.381 -548.3"/><text x="79.957" y="-531.7" fill="#000" font-family="Times,serif" font-size="14" text-anchor="start">Public:</text><text x="79.957" y="-514.9" fill="#000" font-family="Times,serif" font-size="14" text-anchor="start">&lt;&lt;abstract&gt;&gt; transferByLegacy(from: address, to: address, value: uint)</text><text x="79.957" y="-498.1" fill="#000" font-family="Times,serif" font-size="14" text-anchor="start">&lt;&lt;abstract&gt;&gt; transferFromByLegacy(sender: address, from: address, spender: address, value: uint)</text><text x="79.957" y="-481.3" fill="#000" font-family="Times,serif" font-size="14" text-anchor="start">&lt;&lt;abstract&gt;&gt; approveByLegacy(from: address, spender: address, value: uint)</text></g><g id="edge10" class="edge"><title>9-&gt;6</title><path fill="none" stroke="#000" d="M319.6005,-614.7089C304.3436,-638.9483 286.9321,-666.6108 270.3393,-692.9726"/><polygon fill="none" stroke="#000" points="261.224 -687.743 254.129 -718.726 278.996 -698.93 261.224 -687.743"/></g><g id="node10" class="node"><title>10</title><polygon fill="#f2f2f2" stroke="#000" points="443.249 -.5 443.249 -410.9 925.09 -410.9 925.09 -.5 443.249 -.5"/><text x="684.169" y="-394.3" fill="#000" font-family="Times,serif" font-size="14" text-anchor="middle">TetherToken</text><polyline fill="none" stroke="#000" points="443.249 -386.1 925.09 -386.1"/><text x="451.249" y="-369.5" fill="#000" font-family="Times,serif" font-size="14" text-anchor="start">Public:</text><text x="451.249" y="-352.7" fill="#000" font-family="Times,serif" font-size="14" text-anchor="start">name: string</text><text x="451.249" y="-335.9" fill="#000" font-family="Times,serif" font-size="14" text-anchor="start">symbol: string</text><text x="451.249" y="-319.1" fill="#000" font-family="Times,serif" font-size="14" text-anchor="start">decimals: uint</text><text x="451.249" y="-302.3" fill="#000" font-family="Times,serif" font-size="14" text-anchor="start">upgradedAddress: address</text><text x="451.249" y="-285.5" fill="#000" font-family="Times,serif" font-size="14" text-anchor="start">deprecated: bool</text><polyline fill="none" stroke="#000" points="443.249 -277.3 925.09 -277.3"/><text x="451.249" y="-260.7" fill="#000" font-family="Times,serif" font-size="14" text-anchor="start">Public:</text><text x="451.249" y="-243.9" fill="#000" font-family="Times,serif" font-size="14" text-anchor="start">&lt;&lt;event&gt;&gt; Params(feeBasisPoints: uint, maxFee: uint)</text><text x="451.249" y="-227.1" fill="#000" font-family="Times,serif" font-size="14" text-anchor="start">&lt;&lt;event&gt;&gt; Issue(amount: uint)</text><text x="451.249" y="-210.3" fill="#000" font-family="Times,serif" font-size="14" text-anchor="start">&lt;&lt;event&gt;&gt; Redeem(amount: uint)</text><text x="451.249" y="-193.5" fill="#000" font-family="Times,serif" font-size="14" text-anchor="start">&lt;&lt;event&gt;&gt; Deprecate(newAddress: address)</text><text x="451.249" y="-176.7" fill="#000" font-family="Times,serif" font-size="14" text-anchor="start">approve(_spender: address, _value: uint)</text><text x="451.249" y="-159.9" fill="#000" font-family="Times,serif" font-size="14" text-anchor="start">allowance(_owner: address, _spender: address): (remaining: uint)</text><text x="451.249" y="-143.1" fill="#000" font-family="Times,serif" font-size="14" text-anchor="start">deprecate(_upgradedAddress: address)</text><text x="451.249" y="-126.3" fill="#000" font-family="Times,serif" font-size="14" text-anchor="start">transfer(_to: address, _value: uint)</text><text x="451.249" y="-109.5" fill="#000" font-family="Times,serif" font-size="14" text-anchor="start">issue(amount: uint)</text><text x="451.249" y="-92.7" fill="#000" font-family="Times,serif" font-size="14" text-anchor="start">redeem(amount: uint)</text><text x="451.249" y="-75.9" fill="#000" font-family="Times,serif" font-size="14" text-anchor="start">setParams(newBasisPoints: uint, newMaxFee: uint)</text><text x="451.249" y="-59.1" fill="#000" font-family="Times,serif" font-size="14" text-anchor="start">constructor(_initialSupply: uint, _name: string, _symbol: string, _decimals: uint)</text><text x="451.249" y="-42.3" fill="#000" font-family="Times,serif" font-size="14" text-anchor="start">transferFrom(_from: address, _to: address, _value: uint)</text><text x="451.249" y="-25.5" fill="#000" font-family="Times,serif" font-size="14" text-anchor="start">balanceOf(who: address): uint</text><text x="451.249" y="-8.7" fill="#000" font-family="Times,serif" font-size="14" text-anchor="start">totalSupply(): uint</text></g><g id="edge12" class="edge"><title>10-&gt;6</title><path fill="none" stroke="#000" d="M442.87,-269.1723C288.3817,-315.2414 108.6387,-380.911 63.1694,-447.4 14.7489,-518.2045 32.5692,-560.266 63.1694,-640.4 70.5623,-659.7602 81.5467,-678.2475 94.18,-695.3062"/><polygon fill="none" stroke="#000" points="86.216 -702.155 113.287 -718.811 102.511 -688.909 86.216 -702.155"/></g><g id="edge11" class="edge"><title>10-&gt;7</title><path fill="none" stroke="#000" d="M803.8752,-411.2051C805.9373,-414.7452 807.9863,-418.2629 810.0185,-421.7517"/><polygon fill="none" stroke="#000" points="801.031 -427.183 825.204 -447.821 819.177 -416.613 801.031 -427.183"/></g><g id="edge13" class="edge"><title>10-&gt;8</title><path fill="none" stroke="#000" d="M676.8172,-411.1607C673.7926,-483.6359 669.8811,-565.6686 665.1694,-640.4 665.0358,-642.5184 664.8985,-644.6526 664.7577,-646.7996"/><polygon fill="none" stroke="#000" points="654.283 -646.074 662.649 -676.737 675.231 -647.549 654.283 -646.074"/></g><g id="edge14" class="edge"><title>10-&gt;9</title><path fill="none" stroke="#000" stroke-dasharray="5 2" d="M489.7234,-411.2051C471.678,-430.2768 454.2463,-448.6999 438.4065,-465.4407"/><polygon fill="#000" stroke="#000" points="435.575 -463.341 431.244 -473.01 440.66 -468.152 435.575 -463.341"/></g></g></svg>